<svg version="1.1" xmlns="http://www.w3.org/2000/svg" viewBox="0 0 287.44791662693024 251.08158504781215" width="287.44791662693024" height="251.08158504781215">
  <!-- svg-source:excalidraw -->
  
  <defs>
    <style class="style-fonts">
      @font-face {
        font-family: "Virgil";
        src: url("https://excalidraw.com/Virgil.woff2");
      }
      @font-face {
        font-family: "Cascadia";
        src: url("https://excalidraw.com/Cascadia.woff2");
      }
    </style>
    
  </defs>
  <rect x="0" y="0" width="287.44791662693024" height="251.08158504781215" fill="#ffffff"></rect><g stroke-opacity="0.4" fill-opacity="0.4" stroke-linecap="round" transform="translate(10 97.88235294117646) rotate(0 58.5 70.06099681251806)"><path d="M56.26 5.18 C56.26 5.18, 56.26 5.18, 56.26 5.18 M56.26 5.18 C56.26 5.18, 56.26 5.18, 56.26 5.18 M4.17 71.2 C16.81 55.81, 33.41 39.61, 61.24 5.54 M4.17 71.2 C20.1 53.88, 34.93 36.29, 61.24 5.54 M5.87 75.33 C20.32 56.01, 38.07 39.4, 64.92 7.41 M5.87 75.33 C18.74 60.48, 31.36 46.85, 64.92 7.41 M7.58 79.46 C22.98 62.23, 37.5 46.32, 67.28 10.79 M7.58 79.46 C24.34 61.88, 39.83 43.15, 67.28 10.79 M9.94 82.84 C23.98 67.01, 39.82 51.98, 70.3 13.41 M9.94 82.84 C32.67 55.95, 55.01 29.66, 70.3 13.41 M12.96 85.47 C28.5 66.94, 45.1 48.2, 72.66 16.79 M12.96 85.47 C27.72 70.11, 42.15 51.64, 72.66 16.79 M15.32 88.85 C29.17 73.94, 40.66 58.08, 75.68 19.41 M15.32 88.85 C37.65 61.8, 61.08 35.31, 75.68 19.41 M17.69 92.23 C36.62 70.55, 57.95 47.73, 78.04 22.79 M17.69 92.23 C29.82 77.14, 43.91 63.45, 78.04 22.79 M20.71 94.85 C36.89 79.36, 47.93 62.47, 81.06 25.42 M20.71 94.85 C44.72 66.67, 69.23 39.77, 81.06 25.42 M23.07 98.23 C38.56 83.48, 52.14 68.56, 83.43 28.8 M23.07 98.23 C40.87 76.94, 58.96 57.49, 83.43 28.8 M26.09 100.85 C48 74.53, 73.93 48.41, 85.79 32.17 M26.09 100.85 C41.74 83.94, 57.64 65.51, 85.79 32.17 M28.45 104.23 C42.7 88.01, 57.18 70, 88.15 35.55 M28.45 104.23 C48.28 81.09, 70.82 56.35, 88.15 35.55 M30.81 107.61 C51.01 85.43, 69.17 63.5, 91.17 38.18 M30.81 107.61 C42.09 93.96, 55.16 78.91, 91.17 38.18 M33.83 110.24 C47.76 93.35, 64.74 77.79, 93.53 41.56 M33.83 110.24 C53.84 87.22, 76.24 62.56, 93.53 41.56 M36.19 113.61 C50.18 96.67, 64.07 81.19, 95.9 44.94 M36.19 113.61 C53.43 92.47, 71.96 72.51, 95.9 44.94 M39.21 116.24 C60.82 92.34, 81.85 68.37, 98.26 48.31 M39.21 116.24 C51.61 101.11, 63.84 88.1, 98.26 48.31 M41.58 119.62 C65.86 93.81, 88.27 67.48, 101.28 50.94 M41.58 119.62 C55.21 104.09, 67.47 89.47, 101.28 50.94 M44.6 122.24 C66.08 99.39, 85.36 78.22, 103.64 54.32 M44.6 122.24 C63.06 99.95, 82.31 78.88, 103.64 54.32 M46.96 125.62 C60.22 109.15, 78.13 90.11, 106 57.7 M46.96 125.62 C61.36 107.91, 79.03 88.51, 106 57.7 M49.98 128.25 C69.23 107.95, 88.18 84.62, 108.37 61.08 M49.98 128.25 C64.77 110.72, 79.73 94.26, 108.37 61.08 M52.34 131.62 C74.87 105.82, 95.21 79.76, 110.73 64.45 M52.34 131.62 C73.82 106.46, 96.76 80.41, 110.73 64.45 M55.36 134.25 C76.49 111.01, 95.94 89.69, 112.44 68.59 M55.36 134.25 C68.1 118.75, 81.01 103.42, 112.44 68.59 M59.03 136.12 C73.67 119.07, 85.34 106.8, 114.8 71.97 M59.03 136.12 C76.9 115.96, 93.26 97.11, 114.8 71.97" stroke="#a5d8ff" stroke-width="0.5" fill="none"></path><path d="M73.75 17.75 M73.75 17.75 C79.38 26.23, 86.66 33.04, 102.25 53.25 M102.25 53.25 C116.73 71.72, 118.78 69.39, 102.25 88.75 M102.25 88.75 C90.8 102.48, 80.82 115.5, 73.75 122.37 M73.75 122.37 C58.69 138.81, 58.58 138.28, 44.25 122.37 M44.25 122.37 C33.29 110.93, 26.06 100.61, 14.75 88.75 M14.75 88.75 C0.27 70.74, 1.57 69.66, 14.75 53.25 M14.75 53.25 C24.85 40.01, 36.14 25.8, 44.25 17.75 M44.25 17.75 C58.61 -0.09, 60.69 1.73, 73.75 17.75" stroke="#1971c2" stroke-width="1.5" fill="none" stroke-dasharray="8 9"></path></g><g stroke-linecap="round" transform="translate(55.5 164.38235294117646) rotate(0 16.5 16.5)"><path d="M4.43 5.18 C4.43 5.18, 4.43 5.18, 4.43 5.18 M4.43 5.18 C4.43 5.18, 4.43 5.18, 4.43 5.18 M-0.82 16.21 C7.51 10.87, 12.23 3.75, 13.5 1.2 M1.11 14.87 C4.22 12.48, 6.96 7.97, 14.64 -1.1 M1.99 18.97 C4.64 16.77, 11.76 11.9, 17.09 1.53 M2.11 20.02 C9.42 12.76, 14.72 3.76, 18.8 1.23 M2.86 24.51 C10.49 16.59, 15.48 9.25, 23.77 3.5 M3.36 25.75 C9.07 18.48, 13 11.96, 22.79 2.36 M7.3 28.67 C12.16 21.78, 18.54 13.09, 28 4.73 M6.33 28.75 C12.55 20.88, 19.87 13.09, 27.55 3.11 M8.07 29.14 C18.06 20.97, 24.66 10.61, 28.22 5.78 M9.53 30.92 C14.38 23.97, 18.03 19.89, 29.7 7.65 M12.95 31.85 C17.35 27.06, 20.51 23.27, 32.51 10.34 M12.68 32.26 C16.44 26.93, 22.38 20.84, 31.65 10.17 M13.68 35.33 C19.64 32.68, 23.94 24.9, 34.97 14.78 M14.13 35.8 C20.39 28.95, 25.18 22.92, 34.43 13.1 M24.72 32.82 C28.12 26.19, 30.78 21.18, 32.64 19.19 M24.19 30.94 C27.43 28.48, 29.8 24.37, 34.41 20.29 M3.42 26.55 C3.42 26.55, 3.42 26.55, 3.42 26.55 M3.42 26.55 C3.42 26.55, 3.42 26.55, 3.42 26.55 M15.72 30.43 C11.5 26.08, 8.46 24.19, 1.83 20.27 M14.14 31.26 C11.8 27.98, 9.75 26.97, 1.34 20.17 M21.45 31.39 C17.62 25.34, 11.98 24.93, 1.2 13.94 M20.3 30.01 C14.34 25.83, 10.15 22.35, 1.7 14.75 M26.65 27.69 C19.01 23.69, 8.59 15.6, 4.19 10.3 M24.67 28.38 C17.13 21.31, 8.14 14.35, 3.06 11.13 M29.82 25.61 C21.17 17.78, 11.09 10.83, 4.89 5.61 M29.1 27.81 C23.21 21.5, 15.7 16.04, 5.05 6.46 M30.67 23.74 C25.12 19.21, 20.69 13.24, 6.96 3.59 M30.69 24.29 C23.45 16.94, 14.69 10.38, 6.57 2.81 M33.25 21.29 C27.86 16.84, 19.3 8.35, 11.24 0.46 M33.02 21.39 C25.26 13.82, 17.58 5.86, 9.81 0.79 M35.32 17.07 C28.33 12.22, 25.8 7.25, 13.21 0.01 M33.93 15.77 C28.98 11.05, 24.19 7.05, 14.09 -0.88 M32.18 9.46 C30.93 9.17, 27 6.53, 23.24 2.2 M33.28 9.62 C30.25 7.5, 27.74 5.41, 24.14 1.98" stroke="#a5d8ff" stroke-width="0.5" fill="none"></path><path d="M14.58 -0.46 C17.74 -1.28, 22.07 0.11, 24.88 2.19 C27.69 4.27, 30.25 8.53, 31.45 12.03 C32.64 15.53, 33.38 19.98, 32.05 23.19 C30.72 26.4, 26.66 29.61, 23.46 31.29 C20.25 32.97, 16.14 34.04, 12.81 33.26 C9.49 32.48, 5.59 29.63, 3.5 26.62 C1.4 23.6, 0.05 18.76, 0.23 15.15 C0.41 11.55, 2.05 7.6, 4.58 5.01 C7.11 2.42, 13.21 0.28, 15.4 -0.39 C17.59 -1.06, 17.72 0.77, 17.72 0.98 M12.1 1.07 C15.29 0.39, 19.9 1.08, 23.2 2.68 C26.5 4.29, 30.4 7.53, 31.91 10.69 C33.43 13.85, 33.21 18.47, 32.3 21.66 C31.4 24.85, 29.38 28.12, 26.48 29.83 C23.57 31.53, 18.29 32.14, 14.86 31.89 C11.43 31.65, 8.24 30.77, 5.88 28.36 C3.53 25.95, 1.33 21.29, 0.74 17.43 C0.14 13.58, 0.2 8.16, 2.3 5.24 C4.41 2.32, 11.53 0.52, 13.36 -0.1 C15.19 -0.72, 13.12 0.96, 13.31 1.52" stroke="#1971c2" stroke-width="1" fill="none"></path></g><g stroke-linecap="round" transform="translate(47 72.88235294117646) rotate(0 23.5 23.5)"><path d="M12.98 -1.13 L37.57 0.45 L44.08 1.4 L44.22 3.01 L45.82 9.96 L47.1 38.9 L45.44 41.74 L42.39 45.82 L36.71 47.61 L9.72 47.2 L4.06 45.34 L1.49 40.7 L-0.78 35.13 L1.93 4.91 L2.95 0.73 L11 -1.06" stroke="none" stroke-width="0" fill="#a5d8ff"></path><path d="M11.75 0 M11.75 0 C18.99 0.44, 24.72 0.13, 35.25 0 M11.75 0 C19.61 -0.58, 27.98 0.46, 35.25 0 M35.25 0 C44.03 0.04, 45.68 2.09, 47 11.75 M35.25 0 C44.02 -0.81, 47.75 5.08, 47 11.75 M47 11.75 C46.36 21.43, 45.81 29.34, 47 35.25 M47 11.75 C47.21 17.14, 47.26 23, 47 35.25 M47 35.25 C47.89 41.99, 42.87 45.21, 35.25 47 M47 35.25 C47.09 45.27, 42.69 45.46, 35.25 47 M35.25 47 C30.33 48.29, 22.98 48.02, 11.75 47 M35.25 47 C26.54 46.55, 18.42 46.19, 11.75 47 M11.75 47 C4.43 46.38, 0.43 42.13, 0 35.25 M11.75 47 C5.16 47.81, 1.02 41.01, 0 35.25 M0 35.25 C-1.6 29.96, 0.19 20, 0 11.75 M0 35.25 C0.52 29.16, 0.29 25.95, 0 11.75 M0 11.75 C0.28 5.35, 4.26 -0.43, 11.75 0 M0 11.75 C1.72 4.9, 2.24 -1.81, 11.75 0" stroke="#1971c2" stroke-width="1" fill="none"></path></g><g transform="translate(58.166664123535156 10) rotate(0 11.729166984558105 12)"><text x="0" y="0" font-family="Cascadia, Segoe UI Emoji" font-size="20px" fill="#1e1e1e" text-anchor="start" style="white-space: pre;" direction="ltr" dominant-baseline="text-before-edge">r1</text></g><g stroke-linecap="round"><g transform="translate(68.52703119520629 34.92641166979786) rotate(0 0.47296880479348147 18.073588330202142)"><path d="M0 0 C0.16 6.02, 0.79 30.12, 0.95 36.15 M0 0 C0.16 6.02, 0.79 30.12, 0.95 36.15" stroke="#1e1e1e" stroke-width="2" fill="none"></path></g><g transform="translate(68.52703119520629 34.92641166979786) rotate(0 0.47296880479348147 18.073588330202142)"><path d="M-5.68 19.33 C-3.17 25.69, -0.67 32.05, 0.95 36.15 M-5.68 19.33 C-3.11 25.86, -0.53 32.39, 0.95 36.15" stroke="#1e1e1e" stroke-width="2" fill="none"></path></g><g transform="translate(68.52703119520629 34.92641166979786) rotate(0 0.47296880479348147 18.073588330202142)"><path d="M6.68 19 C4.51 25.49, 2.34 31.97, 0.95 36.15 M6.68 19 C4.46 25.66, 2.23 32.32, 0.95 36.15" stroke="#1e1e1e" stroke-width="2" fill="none"></path></g></g><mask></mask><g stroke-opacity="0.4" fill-opacity="0.4" stroke-linecap="round" transform="translate(160.44791662693024 100.95959142277604) rotate(0 58.5 70.06099681251806)"><path d="M56.26 5.18 C56.26 5.18, 56.26 5.18, 56.26 5.18 M56.26 5.18 C56.26 5.18, 56.26 5.18, 56.26 5.18 M4.17 71.2 C19.68 57.34, 33.22 38.35, 61.24 5.54 M4.17 71.2 C24.37 46.76, 46.89 21.29, 61.24 5.54 M5.87 75.33 C23.93 51.33, 44.47 32.6, 64.92 7.41 M5.87 75.33 C20.02 57.85, 35.61 41.17, 64.92 7.41 M7.58 79.46 C30.01 54.12, 50.65 30.72, 67.28 10.79 M7.58 79.46 C21.84 61.98, 36.32 44.92, 67.28 10.79 M9.94 82.84 C30.13 59.75, 49.91 35.38, 70.3 13.41 M9.94 82.84 C27.35 62.39, 42.74 44.58, 70.3 13.41 M12.96 85.47 C25.02 68.34, 38.36 52.14, 72.66 16.79 M12.96 85.47 C27.28 67.98, 42.5 50.01, 72.66 16.79 M15.32 88.85 C30.59 73.86, 42.97 60.8, 75.68 19.41 M15.32 88.85 C31.5 68.69, 48.82 49.23, 75.68 19.41 M17.69 92.23 C33.69 75.52, 47.29 56.83, 78.04 22.79 M17.69 92.23 C31.4 77.12, 46.22 59.96, 78.04 22.79 M20.71 94.85 C39.19 72.23, 60.71 49.47, 81.06 25.42 M20.71 94.85 C41.11 72.72, 59.42 49.29, 81.06 25.42 M23.07 98.23 C33.89 82.1, 45.96 71.48, 83.43 28.8 M23.07 98.23 C34.64 83.95, 46.87 69.79, 83.43 28.8 M26.09 100.85 C42.38 84.42, 55.58 65.29, 85.79 32.17 M26.09 100.85 C50.54 74.94, 73.54 46.54, 85.79 32.17 M28.45 104.23 C46.49 81.97, 67.96 59.34, 88.15 35.55 M28.45 104.23 C43.33 86.45, 58.34 71.02, 88.15 35.55 M30.81 107.61 C44.04 94.9, 54.05 80.7, 91.17 38.18 M30.81 107.61 C52.91 80.26, 78.27 52.44, 91.17 38.18 M33.83 110.24 C44.64 95.44, 57.11 82.11, 93.53 41.56 M33.83 110.24 C50.14 93.32, 65.49 74.91, 93.53 41.56 M36.19 113.61 C50.21 98.96, 63.19 86.19, 95.9 44.94 M36.19 113.61 C56.75 90.42, 76.66 65.86, 95.9 44.94 M39.21 116.24 C61.24 89.01, 85.83 62.63, 98.26 48.31 M39.21 116.24 C59.71 93.02, 78.71 70.92, 98.26 48.31 M41.58 119.62 C63.14 96.04, 83.05 75.3, 101.28 50.94 M41.58 119.62 C63.94 92.11, 87.16 65.23, 101.28 50.94 M44.6 122.24 C63.14 99.66, 79.38 80.8, 103.64 54.32 M44.6 122.24 C57.8 106.88, 70.89 91.35, 103.64 54.32 M46.96 125.62 C63.91 106.57, 75.54 90.91, 106 57.7 M46.96 125.62 C59.8 111.33, 70.96 97.47, 106 57.7 M49.98 128.25 C73.71 104.83, 91.82 76.55, 108.37 61.08 M49.98 128.25 C66.3 109.45, 82.03 91.25, 108.37 61.08 M52.34 131.62 C71.12 109.92, 88.02 89.28, 110.73 64.45 M52.34 131.62 C74.06 105.91, 97.97 78.68, 110.73 64.45 M55.36 134.25 C71.46 115.73, 83.21 98.53, 112.44 68.59 M55.36 134.25 C70.08 116.74, 84.35 101.04, 112.44 68.59 M59.03 136.12 C73.76 121.21, 89.71 104.06, 114.8 71.97 M59.03 136.12 C72.86 120.36, 85.49 106.08, 114.8 71.97" stroke="#b2f2bb" stroke-width="0.5" fill="none"></path><path d="M73.75 17.75 M73.75 17.75 C80.97 27.96, 86.16 34.28, 102.25 53.25 M102.25 53.25 C118.78 71.78, 117.97 69.38, 102.25 88.75 M102.25 88.75 C93.97 95.39, 89.53 106.8, 73.75 122.37 M73.75 122.37 C60.79 140.88, 57.87 138.13, 44.25 122.37 M44.25 122.37 C33.15 112.43, 23.18 99.02, 14.75 88.75 M14.75 88.75 C-0.49 69.71, 1.57 71.8, 14.75 53.25 M14.75 53.25 C27.1 37.31, 38.67 23.29, 44.25 17.75 M44.25 17.75 C59.73 0.01, 59.33 1.72, 73.75 17.75" stroke="#2f9e44" stroke-width="1.5" fill="none" stroke-dasharray="8 9"></path></g><g stroke-linecap="round" transform="translate(204.94791662693024 167.45959142277604) rotate(0 16.5 16.5)"><path d="M2.09 9.77 C2.09 9.77, 2.09 9.77, 2.09 9.77 M2.09 9.77 C2.09 9.77, 2.09 9.77, 2.09 9.77 M0.62 20.3 C2.8 14.85, 6.03 9.26, 11.27 2.85 M-0.4 18.58 C3.46 14.14, 6.09 11.17, 12.85 2.59 M0.06 23.24 C7.85 18.31, 10.6 11.61, 20.72 2.2 M2.14 23.35 C6.95 15.42, 13.08 8.17, 20.92 -0.05 M1.99 25.94 C8.04 19.47, 12.11 14.49, 23.62 1.77 M4.89 25.42 C12.15 17.55, 19.62 6.71, 24.91 3.49 M4.7 30.1 C11.12 21.89, 19.87 13.89, 26.25 7.08 M7.2 30.23 C11.58 22.94, 18.39 15.42, 27.97 4.56 M8.46 30.1 C16.37 24.05, 23.22 11.51, 28.33 7.53 M9.03 31.49 C13.39 26.2, 18.91 22.2, 31.26 6.94 M14.68 32.18 C19.54 29.14, 22.83 25.22, 33.39 11.74 M14.45 32.8 C21.03 25.5, 26.08 19.15, 32.7 10.77 M16.89 33.57 C23.65 27.72, 27.75 22.79, 36.52 13.95 M19.16 33.38 C24.43 25.08, 30.84 17.55, 35.13 15.49 M25.38 31.36 C28.27 27.42, 33.17 23.71, 35.98 19.74 M26.95 31.49 C28.35 27.31, 31.48 24.41, 36.32 20.06 M6.79 30.29 C6.79 30.29, 6.79 30.29, 6.79 30.29 M6.79 30.29 C6.79 30.29, 6.79 30.29, 6.79 30.29 M16.34 32.32 C11.62 27.36, 8.09 26.72, -1.36 18.77 M14.46 30.93 C8.83 26.67, 3.83 21.42, 0.59 18.65 M20.23 31.56 C15.17 28.59, 11.86 23.99, 0.25 16.46 M19.87 31.56 C12.93 26.56, 8.17 20.45, 2.37 14.21 M24.7 27.49 C16.76 22.54, 10.78 18.22, 0.93 12.62 M23.16 28.11 C16.24 23.36, 8.98 15.38, 3.2 10.36 M30.93 29.51 C24.94 22.38, 16 17.75, 2.64 7.29 M29.53 29.58 C24.2 23.92, 19.24 19.12, 4.48 6.35 M31.85 24.66 C22.82 15.81, 16.85 8.94, 6.14 3.39 M30.5 25.17 C25.23 20.62, 19.5 14.42, 6.78 3.93 M32.15 20.29 C24.92 15.54, 20.45 12.55, 11.27 0.26 M32.34 21.55 C23.21 13.02, 15.2 6.09, 10.63 1.5 M35.33 18.57 C30.29 12.57, 21.28 7.61, 10.83 -3.37 M33.5 17.95 C27.24 11.54, 20.69 4.45, 12.88 -2.43 M31.39 9.13 C29.88 8.64, 26.63 3.65, 20.45 0.67 M32.44 10.73 C28.09 6.26, 22.89 1.92, 20.83 -0.24" stroke="#b2f2bb" stroke-width="0.5" fill="none"></path><path d="M9.91 0.77 C12.68 -0.82, 17.07 -1.12, 20.59 0.09 C24.11 1.31, 28.83 5.19, 31.01 8.06 C33.19 10.94, 34.07 13.86, 33.67 17.34 C33.27 20.83, 31.29 26.5, 28.63 28.98 C25.96 31.47, 21.32 32.04, 17.69 32.26 C14.06 32.49, 9.86 32.27, 6.84 30.33 C3.82 28.4, 0.37 24.09, -0.42 20.66 C-1.21 17.23, 0.2 13.21, 2.09 9.77 C3.98 6.33, 9.06 1.4, 10.92 0.04 C12.77 -1.32, 13.12 1.09, 13.2 1.61 M13.97 -0.42 C17.34 -1.42, 21.7 -1.41, 24.78 0.38 C27.86 2.17, 31.27 6.88, 32.47 10.33 C33.66 13.78, 33.01 17.88, 31.94 21.08 C30.87 24.29, 28.72 27.45, 26.04 29.54 C23.36 31.64, 19.46 33.96, 15.85 33.67 C12.23 33.39, 7.13 30.49, 4.36 27.82 C1.59 25.14, -0.67 21.21, -0.77 17.61 C-0.87 14.01, 1.62 9.09, 3.75 6.22 C5.87 3.36, 10.51 1.37, 11.97 0.43 C13.43 -0.51, 12.53 0.38, 12.5 0.59" stroke="#2f9e44" stroke-width="1" fill="none"></path></g><g stroke-linecap="round" transform="translate(197.44791662693024 75.95959142277604) rotate(0 23.5 23.5)"><path d="M12.68 -1.04 L36.35 1.81 L41.87 1.74 L44.11 3.51 L45.86 13.32 L48.26 39.54 L43.42 43.87 L43.52 45.59 L33.84 47.21 L10.06 45.04 L5.09 46.11 L2.81 41.52 L-1.57 35.7 L2.52 5.59 L6.16 0.73 L11.69 -1.65" stroke="none" stroke-width="0" fill="#b2f2bb"></path><path d="M11.75 0 M11.75 0 C18.93 0.94, 30.26 -0.62, 35.25 0 M11.75 0 C19.39 0.64, 25.25 0.12, 35.25 0 M35.25 0 C42.02 0.22, 47.63 3.37, 47 11.75 M35.25 0 C41.95 -0.01, 46.57 3.65, 47 11.75 M47 11.75 C48.73 18.4, 45.24 21.06, 47 35.25 M47 11.75 C47.77 19.04, 46.39 26.91, 47 35.25 M47 35.25 C45.58 42.31, 44.95 47.81, 35.25 47 M47 35.25 C45.56 44.66, 40.79 48.48, 35.25 47 M35.25 47 C31.64 46.77, 25.81 48.79, 11.75 47 M35.25 47 C28.03 46.07, 21.82 46.09, 11.75 47 M11.75 47 C3.18 47.58, -0.52 43.39, 0 35.25 M11.75 47 C5.55 44.71, 1.17 41.48, 0 35.25 M0 35.25 C1.04 29.83, -1.33 22.43, 0 11.75 M0 35.25 C0.34 26.87, 0.55 18.63, 0 11.75 M0 11.75 C-0.21 4.56, 5.07 1.58, 11.75 0 M0 11.75 C-2 4.11, 1.69 -0.01, 11.75 0" stroke="#2f9e44" stroke-width="1" fill="none"></path></g><g transform="translate(207.6145807504654 13.07723848159958) rotate(0 11.729166984558105 12)"><text x="0" y="0" font-family="Cascadia, Segoe UI Emoji" font-size="20px" fill="#1e1e1e" text-anchor="start" style="white-space: pre;" direction="ltr" dominant-baseline="text-before-edge">r2</text></g><g stroke-linecap="round"><g transform="translate(218.11232507150362 38.07723848159958) rotate(0 0.7245852159940114 18.03679416510107)"><path d="M0 0 C0.24 6.01, 1.21 30.06, 1.45 36.07 M0 0 C0.24 6.01, 1.21 30.06, 1.45 36.07" stroke="#1e1e1e" stroke-width="2" fill="none"></path></g><g transform="translate(218.11232507150362 38.07723848159958) rotate(0 0.7245852159940114 18.03679416510107)"><path d="M-5.4 19.37 C-3.53 23.93, -1.66 28.5, 1.45 36.07 M-5.4 19.37 C-3.26 24.58, -1.13 29.79, 1.45 36.07" stroke="#1e1e1e" stroke-width="2" fill="none"></path></g><g transform="translate(218.11232507150362 38.07723848159958) rotate(0 0.7245852159940114 18.03679416510107)"><path d="M6.94 18.88 C5.44 23.57, 3.94 28.27, 1.45 36.07 M6.94 18.88 C5.22 24.24, 3.51 29.61, 1.45 36.07" stroke="#1e1e1e" stroke-width="2" fill="none"></path></g></g><mask></mask></svg>