<svg version="1.1" xmlns="http://www.w3.org/2000/svg" viewBox="0 0 305.44791662693024 287.1306867574614" width="305.44791662693024" height="287.1306867574614">
  <!-- svg-source:excalidraw -->
  
  <defs>
    <style class="style-fonts">
      @font-face {
        font-family: "Virgil";
        src: url("https://excalidraw.com/Virgil.woff2");
      }
      @font-face {
        font-family: "Cascadia";
        src: url("https://excalidraw.com/Cascadia.woff2");
      }
    </style>
    
  </defs>
  <rect x="0" y="0" width="305.44791662693024" height="287.1306867574614" fill="#ffffff"></rect><g stroke-opacity="0.4" fill-opacity="0.4" stroke-linecap="round" transform="translate(10 99.88235294117646) rotate(0 74 88.62416690814246)"><path d="M68.55 7.91 C68.55 7.91, 68.55 7.91, 68.55 7.91 M68.55 7.91 C68.55 7.91, 68.55 7.91, 68.55 7.91 M6.62 85.25 C32.77 53.66, 59.31 24.81, 74.85 6.76 M6.62 85.25 C31.65 57.26, 55.33 29.03, 74.85 6.76 M7.01 90.9 C34.55 59.31, 60.64 30.58, 79.18 7.88 M7.01 90.9 C24.24 71.77, 39.54 52.1, 79.18 7.88 M8.72 95.03 C38.36 62.65, 65.48 27.23, 82.2 10.5 M8.72 95.03 C31.74 66.12, 56.29 40.07, 82.2 10.5 M9.77 99.92 C28.09 81.76, 41.45 62.24, 84.56 13.88 M9.77 99.92 C34.35 72.64, 57.07 45.66, 84.56 13.88 M12.79 102.54 C28.91 80.5, 49.18 60.37, 87.58 16.51 M12.79 102.54 C34.06 80.28, 52.14 56.06, 87.58 16.51 M15.15 105.92 C32.68 87.33, 49.36 65.96, 89.94 19.89 M15.15 105.92 C41.01 77.23, 67.56 45.81, 89.94 19.89 M17.51 109.3 C37.28 84.36, 56.9 64.17, 92.96 22.51 M17.51 109.3 C41.36 81.94, 65.87 54.94, 92.96 22.51 M19.88 112.68 C50.82 77.26, 78.58 43.75, 95.32 25.89 M19.88 112.68 C34.25 94.28, 50.48 76.9, 95.32 25.89 M22.9 115.3 C48.8 84.89, 77.39 55.74, 98.34 28.51 M22.9 115.3 C40.72 96.1, 58.18 74.54, 98.34 28.51 M25.26 118.68 C46.85 92.15, 73.53 65.06, 100.71 31.89 M25.26 118.68 C46.73 93.03, 69 68.96, 100.71 31.89 M27.62 122.06 C51.02 95.96, 74.04 67.83, 103.07 35.27 M27.62 122.06 C42.69 103.94, 58.13 87.17, 103.07 35.27 M30.64 124.69 C48.67 103.41, 64.1 85.04, 106.09 37.89 M30.64 124.69 C52.78 98.58, 76.49 70.94, 106.09 37.89 M33 128.07 C53.61 104.01, 70.93 83.45, 108.45 41.27 M33 128.07 C50.02 108.09, 68.36 87.25, 108.45 41.27 M35.37 131.44 C53.87 110.65, 70.69 92.16, 110.81 44.65 M35.37 131.44 C59.31 105.4, 81.98 78.49, 110.81 44.65 M38.39 134.07 C56.99 113.36, 75.52 91.73, 113.83 47.28 M38.39 134.07 C66.02 101.3, 92.73 70.44, 113.83 47.28 M40.75 137.45 C68.11 102.84, 97.94 71.85, 116.19 50.66 M40.75 137.45 C60.06 114.04, 80.41 91.1, 116.19 50.66 M43.77 140.07 C64.67 114.32, 86.71 88.26, 118.56 54.03 M43.77 140.07 C59.45 121.93, 74.86 103.95, 118.56 54.03 M46.13 143.45 C63.9 123.5, 80.17 103.64, 121.58 56.66 M46.13 143.45 C63.84 122.28, 81.99 101.96, 121.58 56.66 M48.49 146.83 C69.05 119.7, 93.66 94.46, 123.94 60.04 M48.49 146.83 C69.08 121.84, 89.98 99.57, 123.94 60.04 M51.51 149.45 C76.28 120.99, 101.58 92.99, 126.3 63.42 M51.51 149.45 C71.76 126.19, 92.18 104.49, 126.3 63.42 M53.87 152.83 C77.59 125.61, 99.07 99.29, 129.32 66.04 M53.87 152.83 C73.79 131.49, 90.86 111.13, 129.32 66.04 M56.89 155.46 C79.66 130.32, 99.12 105.53, 131.68 69.42 M56.89 155.46 C75.93 133.58, 95.04 111.01, 131.68 69.42 M59.26 158.84 C80.58 133.34, 101.65 108.41, 134.05 72.8 M59.26 158.84 C75.93 139.29, 92.99 120.39, 134.05 72.8 M61.62 162.21 C83.09 140.52, 101.18 117.07, 137.07 75.42 M61.62 162.21 C80.57 139.89, 100.61 116.37, 137.07 75.42 M63.98 165.59 C89.37 135.75, 113.41 109.36, 139.43 78.8 M63.98 165.59 C90.03 134.05, 117.13 104.02, 139.43 78.8 M67 168.22 C91.93 141.14, 116.84 109.63, 141.13 82.94 M67 168.22 C86.93 146.4, 106.37 123.76, 141.13 82.94 M70.02 170.84 C89.41 148.1, 112.22 123.54, 143.5 86.31 M70.02 170.84 C99.05 136.12, 127.29 102.02, 143.5 86.31 M74.35 171.96 C101.49 142.54, 122.79 114.19, 145.2 90.45 M74.35 171.96 C98.47 143.1, 124.51 115.18, 145.2 90.45" stroke="#a5d8ff" stroke-width="0.5" fill="none"></path><path d="M92.5 22.25 M92.5 22.25 C101.93 35.13, 114.23 50.49, 129.5 66.75 M129.5 66.75 C148.64 88.68, 149.4 88.88, 129.5 111.25 M129.5 111.25 C118.41 120.81, 110 134.45, 92.5 155 M92.5 155 C75.99 177.65, 73.23 177.88, 55.5 155 M55.5 155 C41.69 137.37, 27.12 120.25, 18.5 111.25 M18.5 111.25 C-0.98 87.82, 1.91 87.36, 18.5 66.75 M18.5 66.75 C34.11 50.57, 46.03 31.47, 55.5 22.25 M55.5 22.25 C75.51 -0.51, 73.17 -0.22, 92.5 22.25" stroke="#1971c2" stroke-width="1.5" fill="none" stroke-dasharray="8 9"></path></g><g stroke-linecap="round" transform="translate(39.5 169.38235294117646) rotate(0 16.5 16.5)"><path d="M3.67 7.16 C3.67 7.16, 3.67 7.16, 3.67 7.16 M3.67 7.16 C3.67 7.16, 3.67 7.16, 3.67 7.16 M1.18 16.09 C5.54 10.3, 7.37 6.49, 14.98 1.54 M2.19 15.57 C3.72 12.21, 7.79 9.34, 12.88 1.97 M2.34 22.6 C8.01 16.46, 13.32 9.26, 18.51 1.75 M2.07 20.31 C6.11 16.74, 9.58 12.58, 19.1 1.35 M3.5 24.32 C10.64 17.57, 18.85 10.3, 23.45 1.69 M5.49 25.04 C12.64 15.54, 19.26 7.72, 24.49 0.78 M7.67 28.53 C15.53 19.42, 23.6 8.49, 25.66 4.41 M6.25 28.99 C12.29 20.6, 20.33 13.83, 27.28 3.28 M10.42 28.16 C18.16 21.45, 22.87 12.73, 29.41 8.61 M10.29 29.48 C17.5 21.56, 23.64 14.2, 29.99 6.89 M14.44 30.78 C19.2 26.45, 22.28 23.55, 31.42 11.96 M12.81 33.43 C18.71 25.38, 26.28 17.72, 33.68 10.66 M15.05 33.65 C19.04 31.94, 23.45 25.44, 32.46 12.99 M16.25 34.97 C20.9 28.51, 26.48 22.56, 33.99 15.08 M23.21 31.72 C25.96 29.66, 29.68 26.09, 34.24 20.38 M24.94 31.88 C28.48 27.28, 32.23 23.31, 34.37 21.44 M6.03 28.12 C6.03 28.12, 6.03 28.12, 6.03 28.12 M6.03 28.12 C6.03 28.12, 6.03 28.12, 6.03 28.12 M16.26 31.63 C10.45 28.24, 4.83 24.94, 1.39 18.66 M16.85 31.91 C11.88 27.49, 5.96 23.84, 1.79 18.49 M20.65 32.01 C18.13 26.3, 12.18 21.86, 1.32 14.76 M21.37 30.71 C13.44 24.55, 6.23 18.03, 1.64 14.39 M27.65 30.12 C22.09 26.64, 18.09 20.68, 3.31 9.51 M26.42 29.19 C17.33 22.59, 8.13 15.69, 2.57 9.89 M29.18 26.24 C19.97 21.52, 14.03 12.79, 5.24 3.89 M29.71 27.34 C22.57 21.68, 16.86 15.95, 3.62 5.16 M30.76 24.2 C24.02 17.85, 17.99 14.46, 5.94 5.08 M32.19 24.18 C24.59 17.06, 16.48 10.5, 8.38 3.09 M31.13 20.35 C26.34 12.07, 19.33 5.07, 11.57 2.83 M32.13 19.25 C26.4 14.26, 21.12 8.86, 11.81 2.18 M33.35 12.64 C26.56 9.83, 24.56 8.47, 18.01 0.32 M32.64 14.24 C27.19 9.6, 22.03 4.9, 17.02 2.04 M32.19 8.37 C30.57 5.28, 27.92 5.56, 22.97 0.23 M31.81 7.81 C29.39 6.19, 26.89 4.24, 23.45 1.18" stroke="#a5d8ff" stroke-width="0.5" fill="none"></path><path d="M11.93 1.48 C15.24 0.41, 20.49 -0.34, 23.75 0.81 C27.01 1.96, 29.99 5.13, 31.5 8.37 C33.01 11.61, 33.6 16.7, 32.81 20.27 C32.03 23.84, 29.63 27.62, 26.79 29.8 C23.96 31.97, 19.33 33.66, 15.81 33.33 C12.29 33, 8.17 30.22, 5.67 27.81 C3.17 25.39, 1.15 22.29, 0.81 18.85 C0.48 15.42, 1.28 10.43, 3.64 7.2 C5.99 3.98, 12.74 0.63, 14.96 -0.51 C17.18 -1.65, 17.18 -0.07, 16.95 0.38 M13.84 -0.07 C17.24 -0.57, 24.36 0.96, 27.47 3.18 C30.58 5.39, 31.79 9.84, 32.51 13.19 C33.23 16.54, 33.58 20.15, 31.81 23.28 C30.04 26.41, 25.05 30.38, 21.89 31.97 C18.73 33.56, 16.21 34.06, 12.87 32.81 C9.53 31.56, 4.06 27.23, 1.85 24.46 C-0.35 21.68, -0.7 19.45, -0.38 16.17 C-0.06 12.88, 1.16 7.19, 3.77 4.74 C6.38 2.29, 13.27 2.33, 15.28 1.45 C17.3 0.57, 15.83 -0.64, 15.88 -0.56" stroke="#1971c2" stroke-width="1" fill="none"></path></g><g stroke-linecap="round" transform="translate(65 72.88235294117646) rotate(0 23.5 23.5)"><path d="M11.58 -0.19 L36.89 -0.48 L40.52 1.58 L47.04 5.64 L45.75 12.07 L45 38.61 L44.87 43.62 L42.29 46.3 L35.99 48.28 L7.89 48.27 L5.87 46.96 L1.54 44.35 L-1.41 37.01 L0.81 5.29 L5.27 1.35 L13.02 0.36" stroke="none" stroke-width="0" fill="#a5d8ff"></path><path d="M11.75 0 M11.75 0 C16.7 -0.18, 22.46 0.37, 35.25 0 M11.75 0 C18.77 0.22, 24.02 -0.97, 35.25 0 M35.25 0 C42.47 1.73, 45.4 3.97, 47 11.75 M35.25 0 C43.13 2.15, 47.92 2.48, 47 11.75 M47 11.75 C48.37 20.75, 47.88 26.22, 47 35.25 M47 11.75 C46.86 19.55, 45.87 29.5, 47 35.25 M47 35.25 C45.03 42.42, 42.35 45.94, 35.25 47 M47 35.25 C49.3 43.77, 41.07 44.77, 35.25 47 M35.25 47 C30.33 48.4, 23.92 47.24, 11.75 47 M35.25 47 C26.14 47.89, 18.52 46.38, 11.75 47 M11.75 47 C3.17 45.79, 1.68 42.51, 0 35.25 M11.75 47 C2.18 46.12, 1.26 43.41, 0 35.25 M0 35.25 C-0.6 30.4, -0.08 24.96, 0 11.75 M0 35.25 C-0.53 26.99, -0.18 18.15, 0 11.75 M0 11.75 C1.39 4.67, 3.07 -0.8, 11.75 0 M0 11.75 C0.93 3.77, 5.12 -0.85, 11.75 0" stroke="#1971c2" stroke-width="1" fill="none"></path></g><g transform="translate(76.16666412353516 10) rotate(0 11.729166984558105 12)"><text x="0" y="0" font-family="Cascadia, Segoe UI Emoji" font-size="20px" fill="#1e1e1e" text-anchor="start" style="white-space: pre;" direction="ltr" dominant-baseline="text-before-edge">r1</text></g><g stroke-linecap="round"><g transform="translate(86.52703119520629 34.92641166979786) rotate(0 0.47296880479348147 18.073588330202142)"><path d="M0 0 C0.16 6.02, 0.79 30.12, 0.95 36.15 M0 0 C0.16 6.02, 0.79 30.12, 0.95 36.15" stroke="#1e1e1e" stroke-width="2" fill="none"></path></g><g transform="translate(86.52703119520629 34.92641166979786) rotate(0 0.47296880479348147 18.073588330202142)"><path d="M-5.68 19.33 C-4.32 22.78, -2.96 26.24, 0.95 36.15 M-5.68 19.33 C-3.38 25.17, -1.08 31.01, 0.95 36.15" stroke="#1e1e1e" stroke-width="2" fill="none"></path></g><g transform="translate(86.52703119520629 34.92641166979786) rotate(0 0.47296880479348147 18.073588330202142)"><path d="M6.68 19 C5.5 22.52, 4.33 26.04, 0.95 36.15 M6.68 19 C4.69 24.96, 2.7 30.91, 0.95 36.15" stroke="#1e1e1e" stroke-width="2" fill="none"></path></g></g><mask></mask><g stroke-opacity="0.4" fill-opacity="0.4" stroke-linecap="round" transform="translate(178.44791662693024 100.95959142277604) rotate(0 58.5 70.06099681251806)"><path d="M56.26 5.18 C56.26 5.18, 56.26 5.18, 56.26 5.18 M56.26 5.18 C56.26 5.18, 56.26 5.18, 56.26 5.18 M4.17 71.2 C26.35 45.92, 46.95 23.51, 61.24 5.54 M4.17 71.2 C17.92 56.11, 29.7 40.49, 61.24 5.54 M5.87 75.33 C29.89 49.42, 51.39 20.48, 64.92 7.41 M5.87 75.33 C24.24 51.92, 44.04 31.34, 64.92 7.41 M7.58 79.46 C22.58 65.13, 32.61 49.43, 67.28 10.79 M7.58 79.46 C27.37 57.78, 45.32 36.29, 67.28 10.79 M9.94 82.84 C22.66 64.68, 39.56 48.43, 70.3 13.41 M9.94 82.84 C27.3 64.94, 41.53 45.14, 70.3 13.41 M12.96 85.47 C27.08 70.92, 40.21 53.62, 72.66 16.79 M12.96 85.47 C33.41 62.76, 54.71 37.38, 72.66 16.79 M15.32 88.85 C31.02 68.6, 46.68 52.96, 75.68 19.41 M15.32 88.85 C34.36 66.89, 54.13 45.34, 75.68 19.41 M17.69 92.23 C42.76 63.73, 64.57 37.06, 78.04 22.79 M17.69 92.23 C29.1 77.42, 42.25 63.59, 78.04 22.79 M20.71 94.85 C41.23 70.58, 64.5 47.54, 81.06 25.42 M20.71 94.85 C35.04 79.66, 49 62.13, 81.06 25.42 M23.07 98.23 C40.08 77.26, 62.07 55.57, 83.43 28.8 M23.07 98.23 C40.23 77.57, 58.23 58.42, 83.43 28.8 M26.09 100.85 C44.78 80.3, 62.99 57.7, 85.79 32.17 M26.09 100.85 C37.95 86.46, 50.16 73.41, 85.79 32.17 M28.45 104.23 C42.79 87.28, 54.59 73.07, 88.15 35.55 M28.45 104.23 C45.77 83.66, 64.69 61.52, 88.15 35.55 M30.81 107.61 C47.5 88.1, 60.99 71.94, 91.17 38.18 M30.81 107.61 C44.23 91.7, 58.98 74.99, 91.17 38.18 M33.83 110.24 C48.72 93.37, 62.08 78.87, 93.53 41.56 M33.83 110.24 C52.97 89.67, 70.78 68.35, 93.53 41.56 M36.19 113.61 C50.89 97.41, 65.4 80.42, 95.9 44.94 M36.19 113.61 C58.03 87.49, 79.1 63.12, 95.9 44.94 M39.21 116.24 C60.29 88.73, 83.91 64.88, 98.26 48.31 M39.21 116.24 C54.13 97.8, 70.21 79.78, 98.26 48.31 M41.58 119.62 C57.96 99.04, 75.47 78.2, 101.28 50.94 M41.58 119.62 C54.09 105.21, 66.26 90.96, 101.28 50.94 M44.6 122.24 C58.47 106.8, 70.89 91.36, 103.64 54.32 M44.6 122.24 C58.49 105.68, 72.65 89.96, 103.64 54.32 M46.96 125.62 C62.66 104.16, 82.31 84.62, 106 57.7 M46.96 125.62 C62.95 105.85, 79.27 88.85, 106 57.7 M49.98 128.25 C69.18 106.12, 88.89 84.55, 108.37 61.08 M49.98 128.25 C65.81 109.87, 81.88 93.17, 108.37 61.08 M52.34 131.62 C70.87 110.51, 87.13 90.18, 110.73 64.45 M52.34 131.62 C67.91 115.09, 80.81 99.53, 110.73 64.45 M55.36 134.25 C73.11 114.95, 87.59 95.89, 112.44 68.59 M55.36 134.25 C69.94 117.73, 84.54 100.35, 112.44 68.59 M59.03 136.12 C75.04 116.81, 90.74 98.07, 114.8 71.97 M59.03 136.12 C71.54 121.64, 84.33 107.64, 114.8 71.97" stroke="#b2f2bb" stroke-width="0.5" fill="none"></path><path d="M73.75 17.75 M73.75 17.75 C82.72 28.49, 88.32 37.58, 102.25 53.25 M102.25 53.25 C116.25 70.67, 117.73 69.01, 102.25 88.75 M102.25 88.75 C91.98 100.23, 80.75 113.73, 73.75 122.37 M73.75 122.37 C58.04 138.89, 60.51 141.24, 44.25 122.37 M44.25 122.37 C34.63 110.88, 27.56 102.73, 14.75 88.75 M14.75 88.75 C0.29 70.43, 0.22 72.27, 14.75 53.25 M14.75 53.25 C23.67 40.27, 34.19 30.52, 44.25 17.75 M44.25 17.75 C59.67 -1.17, 58.68 -0.97, 73.75 17.75" stroke="#2f9e44" stroke-width="1.5" fill="none" stroke-dasharray="8 9"></path></g><g stroke-linecap="round" transform="translate(222.94791662693024 167.45959142277604) rotate(0 16.5 16.5)"><path d="M8.5 2.09 C8.5 2.09, 8.5 2.09, 8.5 2.09 M8.5 2.09 C8.5 2.09, 8.5 2.09, 8.5 2.09 M3.03 14.64 C7.93 8.55, 11.26 4.25, 13.61 2.68 M4.09 14.41 C6.28 10.04, 9.63 5.89, 14.7 2 M1.94 22.72 C5.97 16.78, 10.28 11.42, 20.82 3.02 M2.46 22.53 C6.49 16.42, 10.4 12.99, 20.78 0.66 M4.1 24.71 C12.21 16.88, 16.73 10.72, 23.14 3.28 M4.69 25.46 C10.6 16.25, 18.09 9.45, 23.19 2.89 M6.05 30.4 C12.42 21.74, 15.95 17.05, 27.22 4.71 M6.58 27.6 C12.85 20.54, 20.56 14.37, 26.47 4.63 M8.26 29.91 C16.63 23.05, 22.91 15, 29.1 6.34 M8.48 31.9 C17.55 21.95, 25.9 13.97, 31.1 7.02 M13.39 33.83 C17.33 28.97, 24.24 20.2, 34.43 10.78 M14.28 32.59 C17.18 27.78, 20.46 23.89, 32.47 10.64 M17.41 32.86 C20.32 29.23, 25.96 24.52, 32.75 15.08 M18.93 33.29 C21.72 30.07, 24.27 26.89, 33.57 14.89 M27.04 29.2 C30.38 26.03, 34.3 21.51, 36.64 18.47 M27.89 27.79 C30.99 24.55, 34.6 20.63, 36.56 18.34 M8.28 31.63 C8.28 31.63, 8.28 31.63, 8.28 31.63 M8.28 31.63 C8.28 31.63, 8.28 31.63, 8.28 31.63 M14.43 30.87 C11.81 30.37, 7.55 24.51, 3.28 20.39 M15.23 32.55 C11.1 28.96, 8.05 26.93, 2.05 21.4 M20.84 31.59 C14.53 24.92, 8.29 18.91, -0.06 15.95 M20.89 32.25 C12.7 25.26, 5.61 19.67, 2.08 14.8 M24.44 27.14 C17.72 21.01, 8.72 16.64, 0.72 10.18 M24.46 29.69 C17.41 23.85, 10.22 17.57, 1.22 10.64 M28.06 28.7 C20.27 18.87, 11.36 13.06, 2.54 7.63 M27.68 26.94 C22.14 20.71, 15.77 16.05, 5.12 8.07 M30.11 24.09 C19.57 17.99, 11.76 9.66, 8.96 3.97 M30.59 25.75 C25.42 20.74, 22.1 16.75, 7 3.53 M33.33 23.14 C29.09 16.88, 25.1 12.94, 8.81 0.82 M32.84 21.73 C26.47 14.62, 17.31 7.97, 10.53 0.28 M33.93 15.96 C27.67 10.98, 25.02 5.7, 17.24 -0.01 M33.27 17.11 C28.13 11.08, 20.2 5.35, 15.38 1.29 M37.22 13.9 C32.5 9.62, 27.39 5.88, 19.08 1.29 M35.96 14.36 C32.63 10.62, 29.59 8.33, 20.97 -0.54" stroke="#b2f2bb" stroke-width="0.5" fill="none"></path><path d="M20.26 0.92 C23.62 1.41, 27.77 3.46, 30.05 5.96 C32.34 8.47, 33.99 12.41, 33.97 15.96 C33.95 19.52, 32.48 24.41, 29.91 27.27 C27.34 30.13, 22.2 32.44, 18.54 33.12 C14.88 33.8, 10.86 33.35, 7.95 31.34 C5.05 29.33, 2.28 24.33, 1.12 21.04 C-0.05 17.75, -0.25 14.75, 0.97 11.6 C2.19 8.45, 4.78 3.84, 8.45 2.14 C12.12 0.44, 20.25 1.46, 22.97 1.4 C25.69 1.35, 24.9 1.51, 24.76 1.81 M18.37 1.46 C21.69 1.96, 25.14 2.87, 27.59 5.52 C30.03 8.17, 32.61 13.99, 33.02 17.36 C33.44 20.73, 32.24 23.16, 30.08 25.75 C27.93 28.34, 23.66 31.84, 20.07 32.89 C16.48 33.94, 11.49 33.66, 8.56 32.06 C5.62 30.45, 3.76 26.57, 2.45 23.28 C1.14 19.99, -0.03 15.84, 0.69 12.33 C1.41 8.82, 3.76 4.42, 6.79 2.21 C9.81 -0.01, 17.1 -0.84, 18.86 -0.96 C20.61 -1.09, 17.62 1.09, 17.33 1.46" stroke="#2f9e44" stroke-width="1" fill="none"></path></g><g stroke-linecap="round" transform="translate(215.44791662693024 75.95959142277604) rotate(0 23.5 23.5)"><path d="M11.63 0.95 L38.74 1.46 L41.3 3.1 L46.63 6.2 L46.88 13.69 L45.41 39.76 L45.43 41.09 L43.09 45.04 L36.52 47.36 L7.11 46.65 L6.39 45.46 L1.68 43.45 L0.58 34.76 L-1.15 7.19 L5.69 2.22 L10.39 -1.8" stroke="none" stroke-width="0" fill="#b2f2bb"></path><path d="M11.75 0 M11.75 0 C18.13 0.23, 26.28 0.99, 35.25 0 M11.75 0 C17.22 0.63, 23.76 0.38, 35.25 0 M35.25 0 C42.91 1.28, 45.67 3.54, 47 11.75 M35.25 0 C43.13 -1.73, 44.77 5.41, 47 11.75 M47 11.75 C45.86 18.48, 47.52 19.47, 47 35.25 M47 11.75 C46.63 16.82, 47.57 21.15, 47 35.25 M47 35.25 C47.29 44.04, 41.23 46.34, 35.25 47 M47 35.25 C44.83 45.3, 42.18 45.76, 35.25 47 M35.25 47 C28.51 45.69, 22.14 48.29, 11.75 47 M35.25 47 C27.67 46.59, 21.11 46.85, 11.75 47 M11.75 47 C5.8 47.87, 1.13 44.68, 0 35.25 M11.75 47 C3 46.57, -0.12 40.88, 0 35.25 M0 35.25 C-0.89 27.38, -0.22 18.93, 0 11.75 M0 35.25 C0.1 29.58, 0.81 22.21, 0 11.75 M0 11.75 C0.22 3.62, 4.7 1.7, 11.75 0 M0 11.75 C0.74 2.67, 4.19 1.75, 11.75 0" stroke="#2f9e44" stroke-width="1" fill="none"></path></g><g transform="translate(225.6145807504654 13.07723848159958) rotate(0 11.729166984558105 12)"><text x="0" y="0" font-family="Cascadia, Segoe UI Emoji" font-size="20px" fill="#1e1e1e" text-anchor="start" style="white-space: pre;" direction="ltr" dominant-baseline="text-before-edge">r2</text></g><g stroke-linecap="round"><g transform="translate(236.11232507150362 38.07723848159958) rotate(0 0.7245852159940114 18.03679416510107)"><path d="M0 0 C0.24 6.01, 1.21 30.06, 1.45 36.07 M0 0 C0.24 6.01, 1.21 30.06, 1.45 36.07" stroke="#1e1e1e" stroke-width="2" fill="none"></path></g><g transform="translate(236.11232507150362 38.07723848159958) rotate(0 0.7245852159940114 18.03679416510107)"><path d="M-5.4 19.37 C-3.73 23.46, -2.05 27.54, 1.45 36.07 M-5.4 19.37 C-3.45 24.13, -1.5 28.89, 1.45 36.07" stroke="#1e1e1e" stroke-width="2" fill="none"></path></g><g transform="translate(236.11232507150362 38.07723848159958) rotate(0 0.7245852159940114 18.03679416510107)"><path d="M6.94 18.88 C5.59 23.08, 4.25 27.29, 1.45 36.07 M6.94 18.88 C5.37 23.78, 3.81 28.67, 1.45 36.07" stroke="#1e1e1e" stroke-width="2" fill="none"></path></g></g><mask></mask><g stroke-linecap="round" transform="translate(69.5 211.5) rotate(0 16.5 16.5)"><path d="M2.55 7.52 C2.55 7.52, 2.55 7.52, 2.55 7.52 M2.55 7.52 C2.55 7.52, 2.55 7.52, 2.55 7.52 M1.51 16.17 C5.31 12.13, 8.82 7.21, 11.83 2.51 M1.29 14.35 C4.02 12.11, 6.25 9.41, 12.3 2.2 M0.02 21.29 C5.95 16, 12.91 10.16, 16.03 3.19 M2.01 22.02 C7.73 14.19, 12.86 8.08, 17.07 2.29 M4.84 24.75 C11.95 16.51, 19.25 6.45, 20.87 2.9 M3.42 25.21 C8.86 17.5, 16.3 11.41, 22.48 1.76 M5.63 26.64 C13.59 19.67, 18.53 10.68, 25.28 6.34 M5.49 27.96 C12.94 19.79, 19.31 12.16, 25.86 4.62 M10.96 27.75 C15.72 23.42, 18.79 20.53, 27.94 8.93 M9.33 30.41 C15.23 22.35, 22.8 14.69, 30.2 7.64 M11.57 30.63 C16.1 28.27, 21.07 21.11, 31.61 6.95 M12.77 31.94 C18.17 24.63, 24.5 17.82, 33.13 9.04 M15.23 33.13 C20.08 29.15, 26.3 23.01, 34.26 13.16 M17.7 33.36 C24.06 25.33, 30.7 18.18, 34.45 14.67 M26.41 30.05 C28.53 26.87, 29.29 23.67, 33.27 20.93 M25.07 29.43 C27.16 28.11, 30.04 25.04, 32.95 20.78 M5.83 28.35 C5.83 28.35, 5.83 28.35, 5.83 28.35 M5.83 28.35 C5.83 28.35, 5.83 28.35, 5.83 28.35 M17.07 34.6 C15.27 29.52, 10.03 25.69, 0.75 19.98 M17.79 33.3 C11.06 28.15, 5.03 22.68, 1.08 19.61 M23.32 32.06 C18.37 29.12, 15 23.71, 1.99 14.07 M22.09 31.13 C14.12 25.51, 6.04 19.58, 1.25 14.45 M25.6 28.84 C16.88 24.55, 11.45 16.26, 3.17 7.8 M26.13 29.94 C19.38 24.62, 14.07 19.24, 1.54 9.07 M28.69 28.11 C21.56 21.42, 15.13 17.67, 2.36 7.68 M30.11 28.09 C22.05 20.59, 13.48 13.63, 4.8 5.68 M29.06 24.26 C23.45 15.27, 15.63 7.58, 7.23 4.77 M30.06 23.16 C23.64 17.56, 17.67 11.56, 7.47 4.12 M33.54 18.52 C24.78 13.96, 20.79 10.86, 11.41 0.29 M32.83 20.12 C25.08 13.47, 17.67 6.81, 10.42 2.01 M32.91 14.62 C29.95 9.01, 25.15 9.52, 16.14 -0.17 M32.21 13.61 C27.82 10.66, 23.28 7.12, 17.01 1.55 M30.37 7.15 C28.19 5.34, 26.24 2.32, 23.07 0.66 M31.16 8.05 C27.99 5.83, 25.24 2.7, 22.7 1.04" stroke="#a5d8ff" stroke-width="0.5" fill="none"></path><path d="M10.15 1.35 C13.06 0.1, 18.48 0.63, 21.95 1.61 C25.41 2.6, 29.15 4.17, 30.94 7.27 C32.73 10.37, 33.3 16.57, 32.68 20.22 C32.05 23.86, 29.8 26.95, 27.2 29.12 C24.6 31.3, 20.65 33.44, 17.07 33.29 C13.48 33.14, 8.44 30.45, 5.69 28.23 C2.93 26.01, 1.08 23.4, 0.55 19.96 C0.01 16.53, 0.28 10.97, 2.47 7.61 C4.66 4.25, 10.88 1.13, 13.68 -0.19 C16.48 -1.52, 19.09 -0.68, 19.27 -0.35 M24.11 2.01 C27.07 3.66, 29.92 7.68, 31.5 11 C33.07 14.31, 34.57 18.52, 33.55 21.9 C32.54 25.27, 28.75 29.48, 25.41 31.26 C22.08 33.05, 17.04 33.37, 13.55 32.6 C10.07 31.83, 7 29.03, 4.5 26.67 C2.01 24.3, -0.98 21.82, -1.43 18.4 C-1.88 14.97, -0.46 9.25, 1.81 6.12 C4.07 3, 8.24 0.29, 12.18 -0.36 C16.11 -1.01, 23.72 2.06, 25.43 2.22 C27.15 2.38, 23.01 0.25, 22.47 0.61" stroke="#1971c2" stroke-width="1" fill="none"></path></g><g stroke-linecap="round"><g transform="translate(88.52703119520629 122.92641166979786) rotate(0 -9.527031195206519 26.073588330202142)"><path d="M0 0 C-3.18 8.69, -15.88 43.46, -19.05 52.15 M0 0 C-3.18 8.69, -15.88 43.46, -19.05 52.15" stroke="#1e1e1e" stroke-width="2" fill="none"></path></g><g transform="translate(88.52703119520629 122.92641166979786) rotate(0 -9.527031195206519 26.073588330202142)"><path d="M-19.02 24.39 C-19.03 32.55, -19.04 40.72, -19.05 52.15 M-19.02 24.39 C-19.03 32.49, -19.04 40.59, -19.05 52.15" stroke="#1e1e1e" stroke-width="2" fill="none"></path></g><g transform="translate(88.52703119520629 122.92641166979786) rotate(0 -9.527031195206519 26.073588330202142)"><path d="M-1.18 30.9 C-6.44 37.15, -11.7 43.4, -19.05 52.15 M-1.18 30.9 C-6.4 37.1, -11.62 43.31, -19.05 52.15" stroke="#1e1e1e" stroke-width="2" fill="none"></path></g></g><mask></mask><g transform="translate(99.11979132890701 139.46563314981154) rotate(0 29.32291603088379 12)"><text x="0" y="0" font-family="Cascadia, Segoe UI Emoji" font-size="20px" fill="#1e1e1e" text-anchor="start" style="white-space: pre;" direction="ltr" dominant-baseline="text-before-edge">field</text></g></svg>