<svg version="1.1" xmlns="http://www.w3.org/2000/svg" viewBox="0 0 1017.1666717529297 777.3359435606252" width="1017.1666717529297" height="777.3359435606252">
  <!-- svg-source:excalidraw -->
  
  <defs>
    <style class="style-fonts">
      @font-face {
        font-family: "Virgil";
        src: url("https://excalidraw.com/Virgil.woff2");
      }
      @font-face {
        font-family: "Cascadia";
        src: url("https://excalidraw.com/Cascadia.woff2");
      }
    </style>
    
  </defs>
  <rect x="0" y="0" width="1017.1666717529297" height="777.3359435606252" fill="#ffffff"></rect><g stroke-opacity="0.4" fill-opacity="0.4" stroke-linecap="round" transform="translate(250.5 147.79999999999998) rotate(0 203 243.11764705882354)"><path d="M161.77 50.53 C161.77 50.53, 161.77 50.53, 161.77 50.53 M161.77 50.53 C161.77 50.53, 161.77 50.53, 161.77 50.53 M34.24 203.34 C68.7 165.61, 101.61 126.11, 191.03 22.96 M34.24 203.34 C94.79 133.96, 154.21 65.96, 191.03 22.96 M18.89 227.09 C88.7 142.79, 161.08 59.09, 201.27 17.28 M18.89 227.09 C56.41 185, 95.11 140.24, 201.27 17.28 M14.03 238.77 C56.4 192.03, 98.34 144.95, 206.26 17.64 M14.03 238.77 C69.02 177.86, 122.63 115.69, 206.26 17.64 M13.77 245.17 C72.11 179.35, 129.71 110.67, 210.59 18.76 M13.77 245.17 C83.13 165.03, 153.49 83.34, 210.59 18.76 M14.16 250.82 C74.52 182.81, 135.85 112.4, 215.57 19.12 M14.16 250.82 C71.89 183.84, 130.37 116.94, 215.57 19.12 M15.87 254.95 C84.78 176.68, 152.87 97.93, 218.59 21.74 M15.87 254.95 C78.87 182.95, 143.05 108.88, 218.59 21.74 M17.58 259.08 C95.11 167.91, 171.72 78.35, 221.61 24.37 M17.58 259.08 C82.72 185.55, 146.91 111.61, 221.61 24.37 M19.28 263.22 C67.4 207.62, 116.3 151.65, 224.63 26.99 M19.28 263.22 C92.21 178.31, 167.63 92.44, 224.63 26.99 M21.65 266.6 C102.53 174.35, 184.92 80.08, 227.65 29.62 M21.65 266.6 C99.12 177.53, 175.54 90.41, 227.65 29.62 M24.01 269.97 C68.12 219.52, 110.45 167.31, 230.67 32.24 M24.01 269.97 C66.88 220.01, 110.96 170.32, 230.67 32.24 M27.03 272.6 C92.25 198.98, 159.49 121.46, 233.69 34.87 M27.03 272.6 C69.2 225.15, 109.97 178.17, 233.69 34.87 M29.39 275.98 C75.26 223.08, 123.15 169.02, 236.05 38.24 M29.39 275.98 C110.46 182.36, 191.15 89.75, 236.05 38.24 M31.75 279.36 C100.69 196.64, 172.81 113.41, 238.41 41.62 M31.75 279.36 C86.1 218.16, 141.98 154.22, 238.41 41.62 M34.12 282.74 C110.43 194.64, 186.54 105.95, 241.43 44.25 M34.12 282.74 C85.3 223.84, 134.91 166.24, 241.43 44.25 M36.48 286.11 C98.43 214.46, 161.13 140.21, 243.8 47.63 M36.48 286.11 C110.48 201.76, 183.34 117.7, 243.8 47.63 M38.84 289.49 C90.79 228.85, 145.4 166, 246.81 50.25 M38.84 289.49 C107.53 209.26, 178.09 128.35, 246.81 50.25 M41.21 292.87 C94.11 231.05, 146.67 171.27, 249.18 53.63 M41.21 292.87 C114.89 205.89, 191.4 119.32, 249.18 53.63 M44.22 295.5 C92.6 239.81, 141.64 184.46, 251.54 57.01 M44.22 295.5 C103.44 229.28, 160.42 163.09, 251.54 57.01 M46.59 298.88 C100.52 233.16, 157.53 170.13, 254.56 59.63 M46.59 298.88 C114.37 219.81, 183.32 140.94, 254.56 59.63 M48.95 302.25 C125.86 214.59, 199.87 128.97, 256.92 63.01 M48.95 302.25 C105.89 237.09, 160.46 173.75, 256.92 63.01 M51.97 304.88 C109.13 239.76, 163.73 177.51, 259.94 65.64 M51.97 304.88 C94.47 252.84, 137.43 203.25, 259.94 65.64 M54.33 308.26 C107.17 247.01, 159.09 183.88, 262.3 69.01 M54.33 308.26 C128.39 223.84, 201.27 139.29, 262.3 69.01 M56.69 311.64 C134.11 219.7, 215.1 128.26, 264.67 72.39 M56.69 311.64 C113.21 249.82, 167.73 185.01, 264.67 72.39 M59.71 314.26 C107.1 257.13, 157.24 197.62, 267.68 75.02 M59.71 314.26 C138.85 223.24, 219.04 130.74, 267.68 75.02 M62.08 317.64 C141.52 224.25, 223.29 132.84, 270.05 78.4 M62.08 317.64 C124.82 245.04, 185.72 173.72, 270.05 78.4 M65.1 320.26 C137.65 233.89, 215.33 145.89, 272.41 81.78 M65.1 320.26 C116.81 260.09, 167.9 201.93, 272.41 81.78 M67.46 323.64 C122.07 259.79, 178.97 192.56, 274.77 85.15 M67.46 323.64 C112.54 271.23, 159.18 218.62, 274.77 85.15 M69.82 327.02 C115.72 277.22, 160.67 222.98, 277.79 87.78 M69.82 327.02 C119.39 268.52, 168.69 210.74, 277.79 87.78 M72.84 329.65 C129.44 266.66, 185.15 203.05, 280.15 91.16 M72.84 329.65 C129.43 266.19, 186.74 201.44, 280.15 91.16 M75.2 333.03 C139.67 260.49, 203.36 186.3, 282.52 94.54 M75.2 333.03 C137.43 263.17, 198.25 193.73, 282.52 94.54 M78.22 335.65 C125.02 284.82, 170.45 230.73, 285.54 97.16 M78.22 335.65 C123.09 285.79, 166.75 234.64, 285.54 97.16 M80.58 339.03 C141.29 273.26, 200.05 203.55, 287.9 100.54 M80.58 339.03 C153.45 255.73, 225.9 173.01, 287.9 100.54 M82.95 342.41 C125.17 293.14, 170.28 244.62, 290.26 103.92 M82.95 342.41 C149.78 265.45, 216.77 187.63, 290.26 103.92 M85.97 345.03 C149.52 271.73, 212.11 196.46, 293.28 106.54 M85.97 345.03 C162.13 258.21, 239.16 168.6, 293.28 106.54 M88.33 348.41 C158.28 265.8, 227.96 186.8, 295.64 109.92 M88.33 348.41 C132.4 297.77, 175.42 246.6, 295.64 109.92 M91.35 351.03 C149.76 284.37, 207.98 216.85, 298.01 113.3 M91.35 351.03 C166.54 267.27, 239.08 182.15, 298.01 113.3 M93.71 354.41 C167.04 269.38, 239.62 187.5, 301.02 115.93 M93.71 354.41 C176.67 259.8, 258.82 165.91, 301.02 115.93 M96.07 357.79 C144.42 304.53, 190.55 251.46, 303.39 119.3 M96.07 357.79 C159.1 282.49, 223.68 208.46, 303.39 119.3 M99.09 360.42 C142.25 311.06, 186.73 259.06, 305.75 122.68 M99.09 360.42 C169.58 279.82, 238.5 200.69, 305.75 122.68 M101.45 363.8 C162.73 295.53, 224.86 226.26, 308.77 125.31 M101.45 363.8 C159.85 298.99, 215.34 234.91, 308.77 125.31 M104.47 366.42 C169.07 294.23, 232.82 220.24, 311.13 128.69 M104.47 366.42 C183.56 273.51, 263.89 180.71, 311.13 128.69 M106.84 369.8 C183.34 282.83, 259.62 195.07, 313.49 132.07 M106.84 369.8 C166.25 300.5, 226.93 230.76, 313.49 132.07 M109.2 373.18 C163.77 311.32, 219.56 247.41, 316.51 134.69 M109.2 373.18 C162 312.68, 213.78 251.8, 316.51 134.69 M112.22 375.8 C167.78 314.86, 222.02 252.53, 318.88 138.07 M112.22 375.8 C165.2 313.44, 217.84 253.51, 318.88 138.07 M114.58 379.18 C182.54 302.43, 250.81 225.71, 321.24 141.45 M114.58 379.18 C184.56 297.64, 254.14 217.87, 321.24 141.45 M116.94 382.56 C179.25 308.69, 245.2 235.64, 323.6 144.83 M116.94 382.56 C169.11 321.41, 221.85 260.75, 323.6 144.83 M119.96 385.18 C195.06 298.37, 272.35 211.13, 326.62 147.45 M119.96 385.18 C198.41 293.13, 277.16 203.76, 326.62 147.45 M122.32 388.56 C200.17 298.4, 277.12 211.83, 328.98 150.83 M122.32 388.56 C166.22 337.54, 209.8 288.12, 328.98 150.83 M125.34 391.19 C188.04 319.34, 250.5 247.62, 331.35 154.21 M125.34 391.19 C175.25 335.61, 224.67 278.72, 331.35 154.21 M127.71 394.57 C179.67 332.9, 233.19 273.35, 334.37 156.83 M127.71 394.57 C183.83 331.55, 238.16 268.71, 334.37 156.83 M130.07 397.95 C181.78 338.07, 234.69 277.75, 336.73 160.21 M130.07 397.95 C187.96 327.79, 247.58 259.64, 336.73 160.21 M133.09 400.57 C189.49 336.69, 241.93 275.4, 339.09 163.59 M133.09 400.57 C211.4 307.59, 292.05 214.81, 339.09 163.59 M135.45 403.95 C216.37 309.8, 297.38 219.87, 342.11 166.21 M135.45 403.95 C184.75 347.47, 233.2 291.59, 342.11 166.21 M138.47 406.57 C194.13 344.21, 246.09 282, 344.47 169.59 M138.47 406.57 C212.82 321.37, 288.6 235.28, 344.47 169.59 M140.83 409.95 C202.4 340.02, 262.48 270.71, 346.84 172.97 M140.83 409.95 C200.89 339.08, 262.03 269.51, 346.84 172.97 M143.2 413.33 C191.36 359.17, 237.9 306.27, 349.85 175.6 M143.2 413.33 C183.67 365.42, 225.43 317.29, 349.85 175.6 M146.21 415.95 C226.76 323.48, 305.93 231.85, 352.22 178.98 M146.21 415.95 C192.65 362.9, 237.99 310.91, 352.22 178.98 M148.58 419.33 C201.81 360.51, 254.14 299.63, 354.58 182.35 M148.58 419.33 C216.16 340.45, 285.51 263.06, 354.58 182.35 M151.6 421.96 C214.99 348.71, 278.22 275.41, 357.6 184.98 M151.6 421.96 C207.03 358.06, 263.47 293.94, 357.6 184.98 M153.96 425.34 C235.19 332.3, 316.69 238.85, 359.96 188.36 M153.96 425.34 C195.95 375.81, 238.16 327.89, 359.96 188.36 M156.32 428.72 C226.37 348.88, 297.46 267.59, 362.32 191.74 M156.32 428.72 C206.42 372.28, 254.4 316.33, 362.32 191.74 M159.34 431.34 C240.18 338.9, 319.85 244.73, 365.34 194.36 M159.34 431.34 C219.33 362.74, 279.67 292.44, 365.34 194.36 M161.7 434.72 C240.68 344.19, 321.43 251.18, 367.71 197.74 M161.7 434.72 C207.06 381.2, 254.65 326.77, 367.71 197.74 M164.07 438.1 C238.06 354.47, 311.07 271.34, 370.07 201.12 M164.07 438.1 C226.52 367.17, 288 296.98, 370.07 201.12 M167.08 440.72 C242.68 358.2, 316.98 273.05, 372.43 204.5 M167.08 440.72 C223.67 374.68, 281.08 307.56, 372.43 204.5 M169.45 444.1 C228.78 375.28, 288.88 307.62, 375.45 207.12 M169.45 444.1 C239.9 364.21, 309.45 284.58, 375.45 207.12 M172.47 446.73 C220.53 390.04, 268.1 335.24, 377.81 210.5 M172.47 446.73 C242.65 366.18, 313.03 284.7, 377.81 210.5 M174.83 450.1 C244.35 368.14, 317.11 287.24, 380.18 213.88 M174.83 450.1 C245.24 367.8, 316.1 286.06, 380.18 213.88 M177.19 453.48 C258.82 361.12, 338.03 268.96, 382.54 217.26 M177.19 453.48 C236.01 385.04, 295.41 315.47, 382.54 217.26 M180.21 456.11 C219.63 408.87, 261.65 362.5, 384.9 220.64 M180.21 456.11 C238.42 386.56, 298.7 318.96, 384.9 220.64 M183.23 458.73 C235.06 400.69, 284.77 344.36, 387.26 224.02 M183.23 458.73 C249.05 382.47, 315.8 305.44, 387.26 224.02 M186.25 461.36 C240.12 402.71, 292.08 342.51, 388.97 228.15 M186.25 461.36 C255.75 379.71, 326.76 299.26, 388.97 228.15 M189.27 463.98 C235.97 408.49, 285.71 354.3, 391.33 231.53 M189.27 463.98 C262.34 379.13, 336.86 294.01, 391.33 231.53 M192.29 466.6 C242.84 409.5, 294.19 352.66, 393.7 234.91 M192.29 466.6 C258.46 388.19, 326.34 311.63, 393.7 234.91 M195.3 469.23 C242.92 416.56, 290.91 360.74, 394.75 239.8 M195.3 469.23 C244.8 412.32, 295.07 354.12, 394.75 239.8 M199.64 470.34 C245.41 418.69, 289.75 368.32, 395.14 245.44 M199.64 470.34 C250.75 410.75, 302.03 350.67, 395.14 245.44 M203.97 471.46 C267.21 395.98, 331.63 321.17, 394.88 251.84 M203.97 471.46 C269.64 394.49, 335.94 319.45, 394.88 251.84 M209.61 471.06 C281.16 392.57, 351.6 310.4, 390.03 263.52 M209.61 471.06 C280.39 387.7, 351.69 306.88, 390.03 263.52 M219.85 465.39 C262.91 413.62, 307.12 363.81, 374.68 287.27 M219.85 465.39 C271.71 405.62, 323.74 346.47, 374.68 287.27" stroke="#a5d8ff" stroke-width="0.5" fill="none"></path><path d="M255 61 M255 61 C279.11 90.73, 306.59 121.34, 355 183 M355 183 C407.93 242.67, 405.57 242.88, 355 305 M355 305 C326.7 340.86, 301.76 372.08, 255 425.24 M255 425.24 C202.07 484.83, 205.02 484.72, 153 425.24 M153 425.24 C123.25 389.46, 91.22 353.26, 51 305 M51 305 C-0.31 243.96, 0.5 244.27, 51 183 M51 183 C82.45 143.28, 117.94 100.52, 153 61 M153 61 C203.07 -1.33, 204.22 -1.15, 255 61" stroke="#1971c2" stroke-width="1.5" fill="none" stroke-dasharray="8 9"></path></g><g stroke-linecap="round" transform="translate(421 130.29999999999998) rotate(0 31.5 31.5)"><path d="M29.46 1.11 C35.9 0.13, 44.71 1.12, 50.1 4.76 C55.49 8.4, 60.22 16.15, 61.82 22.96 C63.42 29.77, 62.43 39.38, 59.7 45.62 C56.98 51.87, 51.34 57.85, 45.47 60.43 C39.6 63.01, 31.09 62.78, 24.5 61.08 C17.9 59.38, 10.1 55.49, 5.92 50.21 C1.73 44.93, -1.06 36.1, -0.61 29.4 C-0.15 22.7, 3.7 14.89, 8.66 10.02 C13.62 5.15, 25.21 1.6, 29.15 0.18 C33.08 -1.24, 32.19 1.11, 32.27 1.5 M20.85 1.23 C26.52 -0.87, 35 1.1, 41.56 3.57 C48.13 6.04, 56.98 10.53, 60.23 16.06 C63.48 21.59, 62.4 29.84, 61.05 36.72 C59.69 43.61, 57.36 52.75, 52.08 57.37 C46.79 62, 36.4 64.98, 29.33 64.46 C22.26 63.94, 14.28 58.9, 9.66 54.23 C5.05 49.56, 2.67 43.18, 1.64 36.42 C0.6 29.66, 0.22 19.65, 3.48 13.69 C6.73 7.74, 18.35 2.36, 21.15 0.67 C23.95 -1.01, 19.95 3.01, 20.27 3.59" stroke="none" stroke-width="0" fill="#a5d8ff"></path><path d="M31.3 0.17 C37.64 -0.52, 45.01 2.57, 50.33 6.76 C55.66 10.95, 61.88 18.83, 63.25 25.32 C64.62 31.8, 61.89 39.87, 58.55 45.66 C55.21 51.44, 49.4 57.42, 43.22 60.03 C37.03 62.64, 27.89 63.36, 21.44 61.32 C14.99 59.29, 8.15 53.56, 4.52 47.81 C0.89 42.06, -1.53 33.56, -0.37 26.81 C0.8 20.07, 5.98 11.97, 11.54 7.35 C17.09 2.72, 29.19 0.02, 32.94 -0.92 C36.68 -1.86, 34.03 1.06, 33.99 1.69 M21.81 2.65 C27.49 0.07, 36.02 -0.47, 42.11 1.7 C48.19 3.87, 54.86 9.5, 58.32 15.64 C61.77 21.79, 64.01 32.02, 62.86 38.59 C61.7 45.15, 56.55 51.18, 51.4 55.05 C46.24 58.92, 38.89 61.63, 31.93 61.79 C24.98 61.95, 15 60.31, 9.66 56.01 C4.33 51.71, 0.68 42.56, -0.1 35.99 C-0.87 29.42, 1.58 22.55, 5 16.6 C8.42 10.65, 17.48 2.76, 20.42 0.29 C23.37 -2.18, 22.53 1.02, 22.66 1.78" stroke="#1971c2" stroke-width="1" fill="none"></path></g><g transform="translate(446.0594698849029 149.52613639262373) rotate(0 6.666666507720947 12.5)"><text x="6.666666507720947" y="0" font-family="Virgil, Segoe UI Emoji" font-size="20px" fill="#1e1e1e" text-anchor="middle" style="white-space: pre;" direction="ltr" dominant-baseline="text-before-edge">a</text></g><g stroke-opacity="0.4" fill-opacity="0.4" stroke-linecap="round" transform="translate(37.5 429.79999999999995) rotate(0 139.5 144.99212598425197)"><path d="M23.34 120.99 C23.34 120.99, 23.34 120.99, 23.34 120.99 M23.34 120.99 C23.34 120.99, 23.34 120.99, 23.34 120.99 M9.96 142.48 C33.1 111.76, 58.66 84.38, 77.53 64.75 M9.96 142.48 C24.67 125.4, 39.74 108.15, 77.53 64.75 M11.01 147.37 C33.94 120.23, 53.71 95.48, 112.04 31.14 M11.01 147.37 C43.26 110.35, 74.72 74.55, 112.04 31.14 M11.4 153.01 C44.47 114.12, 79.53 70.86, 131.46 14.9 M11.4 153.01 C56.46 99.84, 103.19 48.34, 131.46 14.9 M13.76 156.39 C49.43 115.49, 85.08 74.72, 141.04 9.98 M13.76 156.39 C62.79 98.22, 113.33 40.42, 141.04 9.98 M16.13 159.77 C62.22 102.77, 108.32 49.97, 145.37 11.09 M16.13 159.77 C65.59 103.33, 117.54 44.95, 145.37 11.09 M19.15 162.39 C59.8 118.68, 98.5 74.24, 149.05 12.96 M19.15 162.39 C55.48 122.25, 92.13 80.32, 149.05 12.96 M21.51 165.77 C54.58 126.98, 89.51 86.37, 152.06 15.59 M21.51 165.77 C51.38 131.03, 81.37 98.02, 152.06 15.59 M23.87 169.15 C54.58 135.6, 85.24 101.64, 155.74 17.46 M23.87 169.15 C61.78 125.36, 98.7 81.2, 155.74 17.46 M26.23 172.53 C74.76 115.82, 123.8 57.36, 158.76 20.08 M26.23 172.53 C79.92 113.5, 131.81 52.88, 158.76 20.08 M29.25 175.16 C61.59 136.74, 97.21 99.36, 161.78 22.7 M29.25 175.16 C79.04 118.18, 129.41 61.25, 161.78 22.7 M32.27 177.78 C58.86 143.68, 86.29 111.01, 164.8 25.33 M32.27 177.78 C77.2 126.98, 122.39 75.36, 164.8 25.33 M34.63 181.16 C82.47 125.85, 131.7 71.45, 167.16 28.71 M34.63 181.16 C76.35 133.69, 117.32 86.92, 167.16 28.71 M37.65 183.78 C67.12 152.96, 93.5 117.14, 170.18 31.33 M37.65 183.78 C67.7 150.98, 97.46 116.46, 170.18 31.33 M40.67 186.41 C90.95 125.58, 143.34 66.34, 173.2 33.96 M40.67 186.41 C81.87 137.44, 123.11 90.98, 173.2 33.96 M43.04 189.79 C86.81 139.4, 130.57 88.35, 175.56 37.34 M43.04 189.79 C89.15 138.94, 133.91 86.61, 175.56 37.34 M46.05 192.41 C95.86 135.66, 145.69 77.71, 178.58 39.96 M46.05 192.41 C98.63 131.33, 151.22 69.86, 178.58 39.96 M49.07 195.03 C83.76 157.39, 115.35 118.61, 181.6 42.58 M49.07 195.03 C90.63 146.33, 131.86 97.99, 181.6 42.58 M51.44 198.41 C103.31 142.02, 154.35 83.85, 183.96 45.96 M51.44 198.41 C83.18 162.66, 114.9 126.56, 183.96 45.96 M54.45 201.04 C102.32 143.48, 152.45 86.56, 186.98 48.59 M54.45 201.04 C93.16 157.73, 130.66 112.29, 186.98 48.59 M57.47 203.66 C97.3 159.02, 133.79 113.34, 190 51.21 M57.47 203.66 C99.91 154.21, 142.23 105.26, 190 51.21 M59.84 207.04 C87.01 174.96, 117.71 143.63, 192.36 54.59 M59.84 207.04 C106.08 154.7, 152.95 100.07, 192.36 54.59 M62.86 209.67 C93.5 174.43, 122.08 139.62, 195.38 57.21 M62.86 209.67 C108.88 155.16, 157.38 100.45, 195.38 57.21 M65.22 213.04 C93.1 181.67, 121.71 147.91, 197.74 60.59 M65.22 213.04 C105.04 166.01, 145.33 119.58, 197.74 60.59 M68.24 215.67 C109.3 171.68, 149.4 123.16, 200.76 63.22 M68.24 215.67 C108.52 169.8, 148.64 122.51, 200.76 63.22 M71.26 218.29 C117.85 166.34, 162.58 112.19, 203.78 65.84 M71.26 218.29 C108.51 175.22, 147.03 132.98, 203.78 65.84 M73.62 221.67 C111.12 182.03, 146.61 138.82, 206.14 69.22 M73.62 221.67 C117.73 171.91, 161.29 122.78, 206.14 69.22 M76.64 224.3 C116.27 179.48, 157.57 130.51, 209.16 71.84 M76.64 224.3 C121.82 173.36, 166.54 119.98, 209.16 71.84 M79.66 226.92 C121.32 176.82, 165.22 128.53, 211.52 75.22 M79.66 226.92 C110.17 193.66, 139.62 158.03, 211.52 75.22 M82.02 230.3 C118.99 183.31, 159.77 138.03, 214.54 77.85 M82.02 230.3 C119.48 186.68, 157.13 144.98, 214.54 77.85 M85.04 232.92 C115.26 199.56, 147.87 161.26, 217.56 80.47 M85.04 232.92 C115.63 197.51, 145.93 160.97, 217.56 80.47 M88.06 235.55 C122.57 197.72, 152.92 161.19, 219.92 83.85 M88.06 235.55 C117.78 201.34, 147.34 169.03, 219.92 83.85 M90.42 238.93 C122.82 200.15, 155.34 165.64, 222.94 86.48 M90.42 238.93 C117.45 207.82, 146.74 175.9, 222.94 86.48 M93.44 241.55 C121.33 210.72, 151.53 176.99, 225.96 89.1 M93.44 241.55 C148.09 179.81, 201.04 119.1, 225.96 89.1 M96.46 244.18 C147.73 189.67, 193.89 131.08, 228.32 92.48 M96.46 244.18 C126.77 208.83, 157.19 174.39, 228.32 92.48 M98.82 247.55 C147.63 192.53, 199.93 132.62, 231.34 95.1 M98.82 247.55 C153.28 187.73, 204.59 126.13, 231.34 95.1 M101.84 250.18 C142 208.76, 177.49 163.98, 233.71 98.48 M101.84 250.18 C131.15 215.2, 161.65 181.57, 233.71 98.48 M104.86 252.8 C136.46 221.7, 164.75 184.55, 236.73 101.11 M104.86 252.8 C145.12 205.24, 188.1 157.27, 236.73 101.11 M107.22 256.18 C143.66 215.08, 178.86 170.49, 239.74 103.73 M107.22 256.18 C150.85 207.17, 195.39 156.46, 239.74 103.73 M110.24 258.81 C158.13 198.95, 209.32 142.03, 242.11 107.11 M110.24 258.81 C161.15 201.5, 213.18 142.39, 242.11 107.11 M113.26 261.43 C145.37 224.37, 176.72 188.95, 245.13 109.73 M113.26 261.43 C153.47 213.86, 194.01 166.88, 245.13 109.73 M115.62 264.81 C166.34 204.71, 217.6 145.95, 247.49 113.11 M115.62 264.81 C164.62 207.14, 214.02 151.6, 247.49 113.11 M118.64 267.43 C157.05 217.55, 199.19 171.88, 250.51 115.74 M118.64 267.43 C166.02 212.61, 214.68 157.95, 250.51 115.74 M121.66 270.06 C162.37 221.57, 202.79 176.05, 253.53 118.36 M121.66 270.06 C169.02 216.02, 215.91 161.87, 253.53 118.36 M124.68 272.68 C153.73 236.91, 186.97 200.45, 255.89 121.74 M124.68 272.68 C166.91 222.84, 209.64 173.64, 255.89 121.74 M127.7 275.31 C171.17 226.93, 215.77 176.11, 258.91 124.36 M127.7 275.31 C175.35 222.46, 221.02 168.09, 258.91 124.36 M130.71 277.93 C181.62 221.51, 232.66 163.08, 261.93 126.99 M130.71 277.93 C162.66 239.35, 196.49 202.13, 261.93 126.99 M134.39 279.8 C182.71 226.25, 230.66 172.58, 264.29 130.37 M134.39 279.8 C175.3 232.31, 215.66 186.48, 264.29 130.37 M138.06 281.67 C185.11 229.88, 228.64 177.92, 266.65 133.75 M138.06 281.67 C166.86 249.47, 192.22 218.68, 266.65 133.75 M143.71 281.27 C171.34 246.36, 200.93 216.09, 269.01 137.13 M143.71 281.27 C181.85 237.3, 221.12 191.95, 269.01 137.13 M149.35 280.88 C191.02 230.44, 234.47 180.03, 271.38 140.5 M149.35 280.88 C189.65 235.57, 229.51 190.92, 271.38 140.5 M166.15 267.66 C195.13 233.49, 222.24 200.54, 271.77 146.15 M166.15 267.66 C199.55 226.25, 233.86 188.09, 271.77 146.15" stroke="#ffec99" stroke-width="0.5" fill="none"></path><path d="M175 36.25 M175 36.25 C189.93 49.82, 203.61 66.29, 244 108.75 M244 108.75 C279.62 143.36, 279 146.77, 244 181.25 M244 181.25 C218.82 211.77, 190.2 240.53, 175 253.73 M175 253.73 C141.6 288.74, 141.93 290.14, 105 253.73 M105 253.73 C79.8 224.07, 50.95 196.75, 35 181.25 M35 181.25 C-1.39 144.49, -0.72 144.62, 35 108.75 M35 108.75 C58.11 85.8, 78.5 62.35, 105 36.25 M105 36.25 C141.06 1.94, 140.79 0.87, 175 36.25" stroke="#f08c00" stroke-width="1.5" fill="none" stroke-dasharray="8 9"></path></g><g stroke-linecap="round" transform="translate(146.5 409.79999999999995) rotate(0 31.5 31.5)"><path d="M46.18 3.43 C52.2 5.97, 58.51 12.58, 61 18.88 C63.49 25.18, 63.23 34.84, 61.12 41.24 C59.01 47.64, 53.94 53.76, 48.33 57.28 C42.71 60.8, 33.98 62.98, 27.42 62.36 C20.86 61.74, 13.5 58.59, 8.97 53.58 C4.43 48.56, 0.62 38.99, 0.19 32.27 C-0.23 25.56, 2.33 18.66, 6.43 13.3 C10.52 7.94, 17.66 1.3, 24.79 0.09 C31.91 -1.12, 44.56 4.51, 49.15 6.04 C53.74 7.56, 52.51 8.87, 52.32 9.25 M29.3 -0.73 C35.91 -2.08, 44.18 -0.33, 49.49 3.77 C54.81 7.87, 59.29 17.22, 61.2 23.85 C63.11 30.48, 63.7 37.46, 60.95 43.56 C58.19 49.66, 50.73 57.27, 44.67 60.45 C38.61 63.63, 30.85 64.45, 24.6 62.64 C18.36 60.82, 11.37 55.18, 7.21 49.56 C3.04 43.94, -0.49 35.44, -0.37 28.91 C-0.26 22.37, 3.05 15.11, 7.91 10.35 C12.77 5.59, 25.64 1.77, 28.81 0.36 C31.98 -1.04, 27.21 1.6, 26.91 1.91" stroke="none" stroke-width="0" fill="#ffec99"></path><path d="M20.02 1.89 C25.66 -0.62, 34.75 -0.2, 41.3 2.09 C47.84 4.39, 55.82 9.96, 59.28 15.66 C62.73 21.35, 63.21 29.83, 62.06 36.28 C60.9 42.72, 57.37 49.88, 52.34 54.31 C47.32 58.74, 38.82 62.69, 31.91 62.87 C25.01 63.04, 16.07 59.39, 10.94 55.36 C5.81 51.33, 2.48 45.05, 1.14 38.68 C-0.2 32.31, -1.46 23.58, 2.89 17.13 C7.24 10.67, 22.04 2.74, 27.24 -0.02 C32.43 -2.79, 34.1 0.03, 34.05 0.54 M21.72 1.01 C27.79 -1.64, 36.38 -1.32, 42.7 1.6 C49.02 4.51, 56.5 12.28, 59.63 18.47 C62.76 24.67, 62.96 32.45, 61.5 38.76 C60.04 45.06, 56.36 52.14, 50.88 56.3 C45.41 60.46, 35.71 63.82, 28.67 63.7 C21.62 63.59, 13.39 60.32, 8.62 55.62 C3.86 50.92, 0.57 42.6, 0.09 35.5 C-0.4 28.41, 2.15 18.58, 5.74 13.08 C9.33 7.57, 18.91 4.41, 21.63 2.5 C24.35 0.58, 21.7 1.15, 22.07 1.59" stroke="#ffd43b" stroke-width="1" fill="none"></path></g><g transform="translate(173.1428029003448 429.0261363926237) rotate(0 5.083333492279053 12.5)"><text x="5.083333492279053" y="0" font-family="Virgil, Segoe UI Emoji" font-size="20px" fill="#1e1e1e" text-anchor="middle" style="white-space: pre;" direction="ltr" dominant-baseline="text-before-edge">b</text></g><g stroke-linecap="round" transform="translate(136.5 520.8) rotate(0 16.5 16.5)"><path d="M2 9.68 C2 9.68, 2 9.68, 2 9.68 M2 9.68 C2 9.68, 2 9.68, 2 9.68 M-1.38 17.13 C2.74 11.84, 7.63 8.04, 11.89 4.29 M0.7 17.16 C3.44 14.43, 7.41 10.72, 12.62 3.26 M2.26 22.56 C7.56 16.85, 11.02 11.33, 22.57 1.61 M1.72 21.56 C5.43 16.9, 10.12 12.69, 21.72 0.21 M3.84 25.17 C10.48 18.67, 16.01 12.76, 22.55 2.47 M4.45 25.92 C11.59 16.97, 19.61 7.76, 24.86 2.37 M7.04 28.73 C14.23 22.62, 18.81 17.31, 25.24 6.39 M7.59 28.25 C13.33 20.16, 21.78 10.94, 26.69 5.89 M10.42 31.12 C14.42 24.49, 20.67 17.5, 30.25 6.67 M9.08 31.16 C14.5 25.19, 18.95 20.29, 30.53 8.26 M13.53 31.71 C17.53 28.47, 21.88 20.9, 31.59 10.91 M14.97 31.7 C19.23 27.12, 23.85 22.82, 31.15 11.41 M17.41 33.96 C22.79 28.94, 22.85 27.51, 35.42 17.7 M18.32 32.65 C24.64 27.01, 29.69 21.74, 32.92 16.88 M7.78 29.15 C7.78 29.15, 7.78 29.15, 7.78 29.15 M7.78 29.15 C7.78 29.15, 7.78 29.15, 7.78 29.15 M18.22 32.76 C13.8 28.49, 7.97 25.76, 1.7 19.22 M16.45 31.46 C13.74 29.21, 9.39 25.86, 1.82 17.29 M20.79 29.32 C14.08 25.79, 6.33 19.36, 3.58 13.12 M20.44 30.82 C14.16 23.71, 7.38 17.74, 2.03 13.54 M24.58 29.37 C21.15 24.9, 15.14 19.09, 1.28 10.77 M26.37 28.54 C17.38 20.44, 8.35 12.72, 2.89 8.65 M27.91 28.09 C20.7 20.66, 14.72 14.52, 5.6 4.38 M28.74 25.38 C24 22.1, 19.67 17.68, 5.26 5.36 M30.21 21.9 C24.12 16.56, 15.99 7.02, 9.74 4.77 M31.31 22.29 C23.61 17.02, 18.14 9.99, 8.52 3.07 M31.61 21.45 C25.94 16.61, 23.04 8.06, 10.04 2.25 M33.14 19.98 C28.17 13.99, 22.19 9.87, 11.66 1.22 M34.11 17.88 C27.57 10.99, 24.23 6.04, 15.29 -2.4 M36.15 15.69 C29.41 10.69, 22.84 5.47, 17.1 -1.14" stroke="#ffec99" stroke-width="0.5" fill="none"></path><path d="M20.75 -0.32 C23.97 0.54, 27.31 4.84, 29.5 7.86 C31.7 10.89, 34.25 14.44, 33.92 17.85 C33.58 21.26, 30.27 25.9, 27.47 28.32 C24.67 30.74, 20.4 32.23, 17.13 32.38 C13.86 32.53, 10.72 31.19, 7.86 29.22 C4.99 27.25, 0.89 23.86, -0.06 20.57 C-1.02 17.29, 0.48 12.64, 2.13 9.53 C3.79 6.42, 6.51 3.22, 9.86 1.91 C13.2 0.6, 19.83 1.79, 22.22 1.69 C24.6 1.59, 24.19 1.25, 24.16 1.32 M22.23 0.42 C25.68 1.52, 30.12 5.36, 31.64 8.77 C33.16 12.18, 32.42 17.23, 31.35 20.88 C30.28 24.53, 27.82 28.72, 25.23 30.67 C22.63 32.62, 19.15 32.87, 15.77 32.58 C12.4 32.29, 7.59 31.36, 4.97 28.93 C2.34 26.5, 0.63 21.59, 0.01 17.98 C-0.6 14.37, -0.78 9.97, 1.26 7.28 C3.3 4.59, 8.38 2.88, 12.24 1.83 C16.09 0.77, 22.78 1.13, 24.39 0.96 C26.01 0.8, 22.01 0.7, 21.93 0.82" stroke="#ffd43b" stroke-width="1" fill="none"></path></g><g stroke-linecap="round" transform="translate(98 571.3) rotate(0 16.5 16.5)"><path d="M3.05 6.63 C3.05 6.63, 3.05 6.63, 3.05 6.63 M3.05 6.63 C3.05 6.63, 3.05 6.63, 3.05 6.63 M1.32 15.3 C3.28 11.21, 7.3 6.77, 13.25 0.09 M0.11 15.33 C3.52 11.55, 6.12 8.75, 13.51 1.52 M1.86 18.91 C4.82 16.9, 8.11 10.55, 15.97 2.63 M3.3 18.9 C6.58 15.43, 10.2 12.28, 15.54 3.14 M3.11 24.17 C8.88 18.71, 9.34 16.81, 23.09 5.66 M4.02 22.87 C11.02 16.47, 16.74 10.43, 20.59 4.83 M5.95 29.55 C12.49 20.64, 19.86 9.78, 26.01 3.43 M5.01 29.1 C13.73 18.38, 20.79 10.16, 26.22 5.16 M9.98 31.04 C16.14 23.61, 20.85 18.07, 29.64 7.87 M8.21 29.73 C14.32 24.99, 18.85 19.28, 29.77 5.95 M12.75 30.42 C20.03 25.21, 26.27 17, 32.77 9.49 M12.4 31.92 C19.84 23.37, 26.74 15.66, 31.22 9.91 M15.42 34.8 C21.01 29.81, 24.01 23.67, 33.14 14.75 M17.21 33.97 C24.5 25.25, 31.75 16.96, 34.74 12.63 M23.88 32.01 C26.13 27.3, 29.31 23.8, 34.53 18.16 M24.49 29.98 C26.55 28.25, 28.91 25.74, 34.28 18.89 M4.93 27.86 C4.93 27.86, 4.93 27.86, 4.93 27.86 M4.93 27.86 C4.93 27.86, 4.93 27.86, 4.93 27.86 M12.88 32.34 C9.58 29.51, 8.65 23.58, 0.32 21.04 M14.18 31.09 C11.45 27.3, 7.91 25.14, 1.69 20.17 M18.89 32.34 C12.86 25.89, 10.04 21.38, 1.59 13.37 M20.93 30.15 C14.73 25.59, 8.68 20.82, 3.39 14.63 M24.19 28.26 C19.67 23.42, 13.61 17.52, 3.39 10.23 M24.23 29.24 C18.98 23.79, 12.01 17.86, 3.76 11.35 M27.55 26.13 C18.85 21.19, 14.31 14.39, 2.84 5.15 M28.37 26.13 C19.46 18, 10 10.7, 5.03 5.94 M30.74 24.36 C24.01 19.73, 16.98 13.06, 7.42 2.72 M30.74 22.95 C26.14 19.55, 21.94 15.58, 7.79 4.02 M33.57 19.79 C27.68 17.75, 25.54 12.83, 12.49 3.23 M33.56 20.53 C26.51 13.65, 18.7 7.72, 11.26 2.31 M34.11 16.54 C25.95 8.83, 18.58 3.51, 16.54 -1.78 M32.49 15.94 C27.8 11.35, 23.45 5.78, 14.92 -1.25" stroke="#ffec99" stroke-width="0.5" fill="none"></path><path d="M23.66 1.91 C26.76 3.39, 30.79 7.85, 32.28 11.18 C33.78 14.52, 33.92 18.78, 32.62 21.93 C31.32 25.07, 27.63 28.39, 24.5 30.06 C21.38 31.72, 17.15 32.31, 13.85 31.92 C10.55 31.52, 6.95 30.11, 4.71 27.67 C2.47 25.22, 0.71 20.75, 0.42 17.25 C0.13 13.76, 0.78 9.37, 2.98 6.7 C5.19 4.04, 10.02 1.82, 13.67 1.27 C17.31 0.73, 22.61 2.92, 24.87 3.43 C27.13 3.95, 27.4 4.27, 27.23 4.36 M12.89 1.17 C16 0.2, 20.02 1.36, 23.14 2.64 C26.27 3.92, 30.08 5.81, 31.65 8.86 C33.21 11.9, 33.44 17.38, 32.54 20.92 C31.64 24.46, 29.03 28.31, 26.25 30.11 C23.47 31.92, 19.42 31.84, 15.88 31.74 C12.33 31.63, 7.57 31.86, 4.98 29.48 C2.38 27.1, 0.68 20.94, 0.32 17.43 C-0.04 13.92, 0.94 11.14, 2.82 8.42 C4.69 5.71, 9.96 2.45, 11.57 1.12 C13.19 -0.2, 12.2 0.31, 12.53 0.47" stroke="#ffd43b" stroke-width="1" fill="none"></path></g><g stroke-linecap="round" transform="translate(214 593.3) rotate(0 16.5 16.5)"><path d="M3.7 4.54 C3.7 4.54, 3.7 4.54, 3.7 4.54 M3.7 4.54 C3.7 4.54, 3.7 4.54, 3.7 4.54 M2.52 13.03 C4.77 12.01, 4.42 7.65, 10.44 1.75 M1.97 12.85 C3.61 10.46, 7.82 7.46, 12.28 0.54 M4.26 17.16 C8.2 13.87, 9.16 10.78, 17.75 0.93 M2.14 18.66 C5.61 13.34, 9.83 8.96, 17.13 1.83 M4.82 20.29 C6.7 17.89, 11.74 15.13, 21.11 1.59 M4.8 22.38 C10.89 15.14, 17.89 7.01, 20.74 3.22 M6.31 28.1 C12.67 20.13, 20.59 8.97, 27.78 2.26 M5.17 27.95 C10.63 21.32, 17.37 13.62, 26.95 2.03 M7.5 28.85 C12.49 23.72, 16.56 18.59, 27.03 6.08 M8.62 29.99 C15.32 20.98, 21.86 14.21, 29.61 6.43 M13.16 31.57 C18.95 24.79, 23.4 17.81, 30.6 8.96 M10.49 32.31 C18.48 23.17, 26.7 13.92, 30.05 9.77 M14.91 34.11 C21.86 26.84, 26.68 19.42, 34.46 13.06 M15.47 34.47 C21.68 26.53, 27.96 21.49, 33.39 12.47 M18.85 33.75 C26 27.67, 29.31 25.37, 33.06 18.4 M19.82 34.79 C26.42 27.15, 30.08 23.04, 33.42 18.08 M4.38 26.97 C4.38 26.97, 4.38 26.97, 4.38 26.97 M4.38 26.97 C4.38 26.97, 4.38 26.97, 4.38 26.97 M16.88 31.8 C11.76 28.29, 6.69 21.44, 1.48 18.56 M15.65 30.89 C11.49 26.89, 6.79 23.49, 1.66 18.94 M20.64 29.63 C12.66 22.87, 7.2 19.55, 1.9 14.06 M19.25 30.57 C15.47 25.84, 9.73 21.17, 2.86 14.32 M27.43 28.33 C18.17 22.25, 11.78 16.02, 2.78 11.66 M25.75 30.48 C18.87 24.27, 12.53 17.8, 2.22 9.05 M28.06 26.18 C21.69 19.74, 14.06 14.28, 2.54 3.92 M27.78 27.1 C20.73 19.32, 12.33 12.86, 4.57 6.2 M31.57 21.8 C23.82 16.72, 17.56 13.35, 7.31 2.66 M30.76 23.24 C21.7 16.17, 14.75 8.43, 5.98 1.96 M33.19 21.99 C29.71 15.42, 23.52 10.49, 11.85 -1.43 M33.33 20.35 C28.91 15.45, 22.67 10.71, 11.19 -0.32 M32.01 14.16 C27.39 10.84, 24.16 8.13, 13.36 -1.7 M33.56 15.28 C26.75 9.03, 21.23 5, 16.03 -0.51 M34.22 10.98 C29.14 7.59, 23.84 2.31, 22.26 1.06 M33.03 9.74 C30.69 7.07, 27.26 3.85, 21.05 -0.38" stroke="#ffec99" stroke-width="0.5" fill="none"></path><path d="M13.9 0.36 C17.24 -0.57, 22.29 -0.42, 25.32 1.49 C28.35 3.4, 30.94 8.42, 32.07 11.81 C33.2 15.2, 33.35 18.53, 32.1 21.85 C30.85 25.16, 27.71 29.83, 24.55 31.7 C21.39 33.56, 16.57 33.9, 13.14 33.05 C9.72 32.21, 6.08 29.46, 4.01 26.65 C1.93 23.85, 0.78 19.87, 0.69 16.23 C0.6 12.59, 0.69 7.55, 3.47 4.81 C6.25 2.07, 14.44 0.31, 17.36 -0.22 C20.29 -0.75, 21.01 1.22, 21.02 1.64 M20.85 1.5 C24.43 1.88, 27.51 4.19, 29.66 6.59 C31.81 8.99, 33.84 12.21, 33.77 15.88 C33.69 19.55, 31.96 25.93, 29.21 28.63 C26.46 31.33, 20.67 31.88, 17.27 32.1 C13.87 32.33, 11.61 31.73, 8.81 30 C6.02 28.28, 1.69 25.07, 0.5 21.76 C-0.69 18.46, 0.39 13.54, 1.68 10.17 C2.97 6.81, 5.18 3.34, 8.25 1.57 C11.32 -0.21, 18.05 -0.13, 20.09 -0.49 C22.14 -0.86, 20.76 -0.83, 20.54 -0.63" stroke="#ffd43b" stroke-width="1" fill="none"></path></g><g stroke-linecap="round" transform="translate(397 226.29999999999998) rotate(0 16.5 16.5)"><path d="M7.89 2.89 C7.89 2.89, 7.89 2.89, 7.89 2.89 M7.89 2.89 C7.89 2.89, 7.89 2.89, 7.89 2.89 M3.02 13.79 C7.48 8.31, 11.33 4.23, 13.54 1.16 M4.02 13.34 C6.77 10.7, 8.54 7.66, 13.61 2.42 M3.92 21.55 C10.98 12.83, 17.92 4.93, 19.97 0.75 M1.66 22.63 C6.33 15.8, 11.58 9.88, 19.91 0.57 M4.27 23.33 C8.28 20.44, 13.09 15.45, 23.14 2.08 M3.85 24.43 C11.71 17.52, 18.54 8.59, 24.34 4.14 M6.52 26.58 C11.58 21.08, 21.19 12.01, 28.73 4.66 M5.98 29.42 C11.64 22.86, 18.66 14.7, 27.14 5.18 M8.81 32.67 C16.17 23.86, 21.61 19.12, 31.27 8.31 M8.66 32.85 C15.9 23.72, 24.75 15.59, 30.34 6.01 M15.42 32.57 C21.67 25.98, 28.16 19.31, 34.08 9.83 M13.2 32.45 C19.48 26.37, 24.93 19.77, 32.39 10.73 M17.24 33.22 C23.69 27.42, 26.79 21.05, 34.29 16.06 M18.55 33.26 C22.2 28.55, 27.91 22.85, 33.64 14.82 M28.58 28.97 C31.72 24.5, 34.15 21.3, 37.18 19.35 M27.4 29.31 C29.7 26.92, 31.93 23.86, 35.96 19.07 M7.38 29.61 C7.38 29.61, 7.38 29.61, 7.38 29.61 M7.38 29.61 C7.38 29.61, 7.38 29.61, 7.38 29.61 M16.9 31.79 C12.52 26.57, 6.56 23.04, 1.78 20.87 M17.27 33.11 C11.34 27.69, 5.79 23.39, 3.19 19.42 M18.94 31.5 C14.82 27.08, 11.41 20.54, 2.66 13.53 M19.32 29.8 C13.4 24.04, 8.03 18.55, 3.14 15.19 M25.76 28.93 C14.65 20.12, 6.6 13.67, 3.25 11.03 M23.96 28.42 C20.1 24.8, 14.74 19.86, 2.41 9.92 M30.03 26.01 C20.12 20.27, 10.5 13.14, 4.05 6.49 M28.17 26.21 C19.46 19.36, 12.73 12.81, 5.44 6.06 M34.35 24.16 C24.9 21.16, 22.05 16.63, 6.66 5.27 M31.93 24.32 C25.85 18.1, 17.83 12.07, 7.77 2.73 M33.17 21.43 C25.06 14.42, 17.68 8.4, 9.18 1.98 M34.58 21.27 C26.86 13.16, 17.74 6.37, 10.04 1.04 M35.44 16.67 C25.22 8.36, 20.37 1.46, 15.06 0.12 M34.14 15.74 C28.9 11.34, 23.6 6.55, 15.46 0.26 M33.04 7.4 C27.72 4.55, 24.72 1.36, 21.5 -0.18 M32.46 8.33 C28.81 5.84, 25.98 3.42, 20.99 -0.13" stroke="#a5d8ff" stroke-width="0.5" fill="none"></path><path d="M20.01 0.93 C23.33 1.32, 26.64 2.46, 28.91 5.26 C31.17 8.06, 33.46 13.99, 33.61 17.74 C33.75 21.49, 32.33 25.25, 29.78 27.75 C27.23 30.24, 21.97 32.35, 18.29 32.71 C14.62 33.07, 10.5 31.82, 7.75 29.93 C4.99 28.03, 2.72 24.56, 1.75 21.36 C0.78 18.15, 0.92 13.75, 1.94 10.68 C2.95 7.61, 4.66 4.76, 7.85 2.94 C11.03 1.13, 18.93 0.07, 21.05 -0.21 C23.17 -0.49, 20.66 0.95, 20.57 1.26 M20.92 0.01 C24.56 0.74, 29.67 3.73, 31.47 6.71 C33.27 9.69, 32.16 14.19, 31.73 17.89 C31.3 21.58, 31.49 26.52, 28.89 28.86 C26.29 31.21, 19.8 31.79, 16.12 31.94 C12.45 32.08, 9.23 31.66, 6.84 29.71 C4.45 27.77, 2.75 23.46, 1.77 20.28 C0.79 17.11, -0.54 13.73, 0.94 10.67 C2.42 7.61, 7.12 3.57, 10.62 1.94 C14.13 0.31, 20.26 0.85, 21.98 0.89 C23.71 0.93, 21.15 1.82, 20.98 2.17" stroke="#1971c2" stroke-width="1" fill="none"></path></g><g stroke-linecap="round" transform="translate(346 370.29999999999995) rotate(0 16.5 16.5)"><path d="M0.47 9.68 C0.47 9.68, 0.47 9.68, 0.47 9.68 M0.47 9.68 C0.47 9.68, 0.47 9.68, 0.47 9.68 M0.45 15.43 C1.84 11.49, 5.21 10.88, 10.54 2.68 M0.62 15.18 C3.35 12.35, 6.67 8.79, 10.23 3.5 M-0.61 22.63 C8.54 14.65, 10.89 8.21, 16.68 0.95 M0.34 21.41 C4.75 16.68, 7.73 14.03, 16.14 3.79 M2.02 22.93 C9.27 18.76, 10.4 15.65, 22.24 3.27 M3.93 24.55 C11.13 16.96, 17.15 9, 22.09 3.45 M7.85 25.92 C9.34 22.34, 17.71 17.32, 28.2 3.93 M7.43 27.73 C13.55 17.9, 21.36 9.35, 25.98 3.81 M7.74 29.99 C15.25 22.24, 21.89 15.69, 28.04 6.84 M8.23 30.36 C16.04 22.82, 22.02 15.08, 29.36 6.88 M13.34 30.2 C16.5 28.33, 21.23 23.04, 34.74 8.53 M13.02 32.38 C20.96 22.63, 29.25 14.17, 32.94 9.05 M18.19 32.51 C21.44 25.19, 25.09 21.85, 33.77 11.77 M17.56 32.88 C22.74 26.35, 26 22.38, 34.1 13.16 M21.22 35.32 C25.67 31.41, 28.34 26.52, 34.56 18.61 M20.68 34.09 C26.17 30.18, 30.3 25.13, 34.96 20 M8.33 30.05 C8.33 30.05, 8.33 30.05, 8.33 30.05 M8.33 30.05 C8.33 30.05, 8.33 30.05, 8.33 30.05 M16.75 32.89 C13.54 30.78, 8.26 25.31, 4.03 20.29 M17.02 32.67 C14.45 28.41, 9.84 26.69, 2.31 19.8 M19.68 30.54 C15.99 26.81, 9.25 21.22, 3.84 13.45 M22.05 30.07 C14.78 25.51, 9.37 19.41, 1.98 13.66 M25.32 29.65 C19.53 23.11, 15.23 20.92, 3.63 7.67 M26.01 28.36 C21.33 24.86, 16.15 20.02, 1.21 7.83 M30.13 27.34 C18.3 19.57, 8.93 10.83, 3.96 6.25 M30.18 26.6 C23.53 21.79, 15.46 15.83, 5.38 6.09 M30.14 22.95 C23.51 17.32, 11.06 9.29, 8.49 3.47 M30.51 23.42 C27.06 19.37, 22.25 15.16, 7.19 2.53 M33.4 20.36 C28.63 15.48, 19.47 9.55, 11.76 -1.78 M32.56 19.75 C27.72 14.65, 22.63 8.99, 10.94 -0.47 M34.79 14.43 C30.9 11.73, 24.01 7.96, 16.53 -2.32 M34.95 15.71 C30.13 12.19, 24.65 7.41, 14.38 -0.08 M32.32 9.9 C28.67 5, 25.94 3.73, 22.13 -2.02 M33.81 9.95 C29.61 7, 26.49 4.61, 21.77 -1.97" stroke="#a5d8ff" stroke-width="0.5" fill="none"></path><path d="M8.77 2.76 C11.74 0.91, 16.3 -0.82, 19.93 -0.13 C23.55 0.56, 28.3 3.94, 30.54 6.92 C32.77 9.89, 33.63 14.29, 33.35 17.73 C33.07 21.17, 31.17 25.02, 28.86 27.57 C26.55 30.12, 22.95 32.64, 19.51 33.02 C16.06 33.41, 11.18 31.76, 8.16 29.9 C5.14 28.05, 2.67 25.27, 1.39 21.9 C0.12 18.53, -1.39 13.13, 0.48 9.66 C2.36 6.19, 10.1 2.55, 12.63 1.08 C15.17 -0.38, 15.62 0.86, 15.68 0.88 M22.17 0.4 C25.43 1.72, 29.21 6.5, 30.85 9.91 C32.48 13.32, 32.54 17.71, 31.99 20.87 C31.45 24.02, 30.07 27.04, 27.58 28.83 C25.09 30.62, 20.92 31.82, 17.05 31.6 C13.17 31.38, 7.02 29.72, 4.33 27.5 C1.65 25.29, 1.33 21.64, 0.91 18.31 C0.48 14.97, 0.15 10.51, 1.78 7.49 C3.42 4.47, 7.34 1.44, 10.71 0.18 C14.08 -1.07, 20.07 -0.38, 22 -0.04 C23.92 0.3, 22.37 1.67, 22.26 2.22" stroke="#1971c2" stroke-width="1" fill="none"></path></g><g stroke-linecap="round" transform="translate(491 264.29999999999995) rotate(0 16.5 16.5)"><path d="M3.54 7.06 C3.54 7.06, 3.54 7.06, 3.54 7.06 M3.54 7.06 C3.54 7.06, 3.54 7.06, 3.54 7.06 M1.5 16.79 C3.58 12.02, 9.48 6.47, 14.91 0.59 M-0.01 17.28 C5.17 10.27, 10.9 5.04, 13.51 2.63 M4.08 20.46 C7.95 14.96, 11.01 9.74, 20.76 0.48 M3.15 18.15 C8.98 14.17, 14.14 8.45, 18.56 2.61 M6.24 22.73 C10.65 15.61, 17.46 8.49, 22.71 2.86 M4.55 23.63 C9.69 17.76, 15.48 11.7, 23.7 2.32 M5.8 29.71 C11.51 22.07, 16.9 15.77, 26.62 2.84 M5.15 28.48 C13.75 20.49, 20.67 13.1, 26.63 5.52 M11.29 30.74 C13.53 27.21, 18.33 20.24, 29.58 7.94 M9.42 30.31 C15.95 21.19, 24.42 13.54, 28.16 7.9 M13.73 33.49 C16.31 25.05, 23.96 21.13, 30.39 10.11 M13.56 33.29 C19.5 25.95, 25.04 18.35, 31.13 11.72 M16.09 35.36 C21.1 31.64, 23.9 28.45, 33.18 16.47 M17.57 33.84 C20.59 30.01, 23.81 25.04, 32.57 16.87 M3.74 27.71 C3.74 27.71, 3.74 27.71, 3.74 27.71 M3.74 27.71 C3.74 27.71, 3.74 27.71, 3.74 27.71 M15.36 33.29 C9.86 28.21, 8.72 25.57, 1.82 21.17 M14.65 32.35 C11.26 28.36, 6.97 25.22, 1.53 21.04 M18.55 30.96 C13.88 27.27, 6.15 19.17, 0.43 13.51 M19.95 30.53 C14.03 26.82, 10.41 23.46, 1.01 14.15 M23.43 31.71 C17 24.63, 8.2 15.74, 1.91 13.35 M24.53 29.17 C18.82 24.31, 12.78 19.26, 3.68 11.09 M26.7 29.07 C20.61 19.39, 12.17 15.5, 4.84 8.38 M27.56 28.14 C23.21 21.51, 17.59 17.82, 3.83 5.48 M29.57 24.59 C24.2 19.78, 18.84 13.2, 5.82 3.77 M29.97 24.73 C23.5 17.54, 16.59 12.7, 6.1 3.62 M32.2 21.13 C26.97 18, 20.67 12.93, 10 1.51 M31.46 21.19 C26.72 15.33, 21.38 11.48, 10.48 2.18 M31.08 16.02 C30.19 12.86, 26.53 6.72, 15.5 -1.33 M32.38 14.3 C26.91 10.96, 23.77 8.61, 13.37 -1.04 M32.98 8.8 C28.99 6.11, 26.36 5.28, 19 -1.33 M30.89 9.39 C28.36 6.62, 25.63 4.19, 20.95 0.09" stroke="#a5d8ff" stroke-width="0.5" fill="none"></path><path d="M12.44 1.08 C15.4 -0.09, 20.05 -0.56, 23.11 1.02 C26.18 2.61, 29.36 7.27, 30.82 10.59 C32.28 13.91, 32.8 17.71, 31.86 20.94 C30.93 24.17, 28.17 28.05, 25.2 29.98 C22.22 31.9, 17.59 32.88, 13.99 32.48 C10.39 32.08, 5.84 30.18, 3.59 27.58 C1.35 24.97, 0.5 20.32, 0.52 16.86 C0.54 13.41, 1.05 9.69, 3.73 6.84 C6.41 4, 14.02 0.96, 16.63 -0.2 C19.23 -1.36, 19.24 -0.56, 19.36 -0.09 M17.12 1.4 C20.36 1.34, 24.53 3.49, 27.07 5.67 C29.62 7.85, 31.94 11.23, 32.42 14.47 C32.9 17.71, 31.88 21.91, 29.96 25.09 C28.03 28.27, 24.28 32.2, 20.87 33.54 C17.45 34.87, 12.84 34.69, 9.46 33.1 C6.08 31.52, 2.25 27.45, 0.6 24.02 C-1.04 20.58, -1.42 16.13, -0.42 12.5 C0.57 8.87, 3.88 4.3, 6.59 2.23 C9.29 0.17, 13.97 0.43, 15.82 0.09 C17.66 -0.25, 17.64 -0.07, 17.65 0.18" stroke="#1971c2" stroke-width="1" fill="none"></path></g><g stroke-opacity="0.4" fill-opacity="0.4" stroke-linecap="round" transform="translate(680 455.54999999999995) rotate(0 117.5 126.71568627450984)"><path d="M19.71 105.91 C19.71 105.91, 19.71 105.91, 19.71 105.91 M19.71 105.91 C19.71 105.91, 19.71 105.91, 19.71 105.91 M8.3 125.14 C27.48 101.06, 50.13 81.28, 94.24 26.27 M8.3 125.14 C31.97 99.69, 54.42 72.82, 94.24 26.27 M9.35 130.03 C43.66 86.89, 82.87 48.67, 111.04 13.05 M9.35 130.03 C41.28 94.42, 70.08 60.15, 111.04 13.05 M10.4 134.92 C50.5 90.15, 91.31 43.75, 119.31 9.64 M10.4 134.92 C33.14 107.64, 55.65 82.41, 119.31 9.64 M12.76 138.3 C52.71 95.39, 87.12 49.7, 124.29 10 M12.76 138.3 C41.92 102.89, 70.47 71.14, 124.29 10 M15.13 141.68 C48.01 100.9, 83.94 60.13, 127.31 12.62 M15.13 141.68 C42.73 110.24, 69.8 77.82, 127.31 12.62 M18.15 144.3 C49.43 111.85, 76.97 77.2, 130.33 15.24 M18.15 144.3 C50.49 106.2, 82.97 67.62, 130.33 15.24 M19.85 148.43 C54.94 110.31, 85.94 67.27, 134.01 17.11 M19.85 148.43 C51.61 110.53, 82.31 74.66, 134.01 17.11 M22.87 151.06 C51.79 115.89, 80.16 81.71, 136.37 20.49 M22.87 151.06 C48.74 119.65, 74.95 89.84, 136.37 20.49 M25.23 154.44 C61.51 113.46, 94.47 73.27, 139.39 23.12 M25.23 154.44 C65.17 111.19, 102.67 67.29, 139.39 23.12 M28.25 157.06 C62.24 116.74, 95.25 80.58, 142.41 25.74 M28.25 157.06 C65.68 111.29, 105.1 67.91, 142.41 25.74 M30.62 160.44 C57.07 127.96, 83.42 100.41, 144.77 29.12 M30.62 160.44 C72.06 113.56, 113.32 64.23, 144.77 29.12 M33.63 163.06 C72.25 114.43, 114.43 68.94, 147.79 31.75 M33.63 163.06 C69.93 120.8, 106.16 78.85, 147.79 31.75 M36.65 165.69 C66.31 127.91, 99.96 92.13, 150.15 35.12 M36.65 165.69 C66.53 132.62, 98.38 96.82, 150.15 35.12 M39.02 169.07 C64.6 140.79, 91.06 106.94, 153.17 37.75 M39.02 169.07 C71.34 131.66, 103.99 94.25, 153.17 37.75 M42.04 171.69 C86.84 120.96, 130.93 67.38, 155.53 41.13 M42.04 171.69 C70.2 138.9, 98.37 107.24, 155.53 41.13 M44.4 175.07 C85.04 128.68, 126.27 80.24, 158.55 43.75 M44.4 175.07 C68.2 149.23, 90.11 121.28, 158.55 43.75 M47.42 177.7 C72.66 148.04, 101.55 113.16, 160.91 47.13 M47.42 177.7 C74.31 146.49, 102.83 116.6, 160.91 47.13 M50.44 180.32 C93.78 130.54, 136.59 82.59, 163.93 49.75 M50.44 180.32 C77 149.4, 103.15 118.91, 163.93 49.75 M52.8 183.7 C74.58 157.89, 98.08 131.75, 166.95 52.38 M52.8 183.7 C89.69 141.44, 124.87 99.7, 166.95 52.38 M55.82 186.32 C95.48 138.12, 133.91 92.78, 169.32 55.76 M55.82 186.32 C79.1 159.44, 101.63 132.74, 169.32 55.76 M58.18 189.7 C100.66 142.6, 142.21 91.36, 172.33 58.38 M58.18 189.7 C90.88 153.54, 122.81 116.33, 172.33 58.38 M61.2 192.33 C103.96 143.77, 146.98 94.21, 174.7 61.76 M61.2 192.33 C101.77 147.93, 139.24 103.19, 174.7 61.76 M64.22 194.95 C108.47 144.11, 152.64 94.72, 177.72 64.39 M64.22 194.95 C93.47 162.79, 122.77 130.06, 177.72 64.39 M66.58 198.33 C108.68 152.86, 150.2 104.34, 180.08 67.76 M66.58 198.33 C101.18 159.85, 134.8 118.55, 180.08 67.76 M69.6 200.95 C113.5 152.1, 156.19 101.08, 183.1 70.39 M69.6 200.95 C101.83 164.05, 132.75 127.42, 183.1 70.39 M71.96 204.33 C100.31 171, 127.67 139.98, 185.46 73.77 M71.96 204.33 C118.19 152.69, 162.09 100.65, 185.46 73.77 M74.98 206.96 C100.21 176.94, 126.23 145.66, 188.48 76.39 M74.98 206.96 C116.07 160.33, 156.83 114.04, 188.48 76.39 M77.34 210.34 C119.07 162.56, 162.91 111.61, 190.84 79.77 M77.34 210.34 C113.2 168.25, 152.55 125.3, 190.84 79.77 M80.36 212.96 C119.31 167.51, 159.87 123.78, 193.86 82.39 M80.36 212.96 C124.44 164.59, 166.25 113.7, 193.86 82.39 M83.38 215.58 C121.42 171.52, 157.16 129.21, 196.22 85.77 M83.38 215.58 C110.49 182.45, 140.9 149.69, 196.22 85.77 M85.74 218.96 C109.59 194.08, 132.61 164.78, 199.24 88.4 M85.74 218.96 C130.85 166.71, 175.44 115.36, 199.24 88.4 M88.76 221.59 C125.18 181.77, 158.27 138.65, 201.61 91.78 M88.76 221.59 C128.31 176.37, 166.48 131.02, 201.61 91.78 M91.13 224.97 C120.52 190.47, 153.26 155.23, 204.62 94.4 M91.13 224.97 C133.02 176.24, 173.5 128.02, 204.62 94.4 M94.14 227.59 C133.77 181.77, 172.96 136.24, 207.64 97.03 M94.14 227.59 C118.83 198.69, 144.54 169.86, 207.64 97.03 M97.16 230.21 C131.23 196.68, 161.17 158.58, 210.01 100.4 M97.16 230.21 C140.89 179.42, 185.01 127.97, 210.01 100.4 M99.53 233.59 C132.21 197.77, 163.01 161.73, 213.02 103.03 M99.53 233.59 C133.77 194.65, 166.19 156.99, 213.02 103.03 M102.55 236.22 C139.57 194.57, 177.44 151.53, 215.39 106.41 M102.55 236.22 C135.02 199.33, 166.17 161.86, 215.39 106.41 M105.56 238.84 C142.59 194.8, 185.5 148.11, 218.41 109.03 M105.56 238.84 C131.42 207.36, 159.08 178.21, 218.41 109.03 M108.58 241.47 C130.82 213.88, 156.67 185.45, 221.42 111.66 M108.58 241.47 C154.72 188.46, 197.83 138.98, 221.42 111.66 M111.6 244.09 C141.7 210.24, 172.79 174.04, 223.13 115.79 M111.6 244.09 C149.36 201.14, 186.16 157.78, 223.13 115.79 M115.93 245.21 C142.14 216.81, 169.57 183.09, 225.49 119.17 M115.93 245.21 C138.5 219.25, 160.18 193.29, 225.49 119.17 M121.58 244.81 C157.65 201.78, 191.45 161.21, 227.86 122.55 M121.58 244.81 C155.19 207.3, 188 169.24, 227.86 122.55 M137.72 232.34 C162.85 204.06, 188.2 173.14, 228.91 127.44 M137.72 232.34 C166.62 199, 197.23 165.06, 228.91 127.44" stroke="#82c91e" stroke-width="0.5" fill="none"></path><path d="M147.5 31.75 M147.5 31.75 C163.66 47.92, 181.2 68.24, 205.5 95.25 M205.5 95.25 C235.01 125.74, 234.21 128.57, 205.5 158.75 M205.5 158.75 C188.44 179.37, 170.26 196.65, 147.5 221.68 M147.5 221.68 C117.39 255.27, 117.99 253.02, 88.5 221.68 M88.5 221.68 C66.52 197.51, 45.12 173.06, 29.5 158.75 M29.5 158.75 C0.53 126.93, -0.86 125.06, 29.5 95.25 M29.5 95.25 C39.3 82.22, 52.54 70.61, 88.5 31.75 M88.5 31.75 C117.8 0.6, 118.88 -1.77, 147.5 31.75" stroke="#2f9e44" stroke-width="1.5" fill="none" stroke-dasharray="8 9"></path></g><g stroke-linecap="round" transform="translate(763.5 421.04999999999995) rotate(0 31.5 31.5)"><path d="M22.08 1.7 C27.91 -0.87, 35.5 -0.95, 41.78 1.49 C48.06 3.92, 56.21 10.41, 59.77 16.31 C63.34 22.2, 64.7 30.33, 63.19 36.85 C61.68 43.38, 56.11 51.22, 50.7 55.47 C45.28 59.73, 37.42 62.42, 30.7 62.4 C23.97 62.38, 15.37 59.64, 10.34 55.35 C5.3 51.05, 1.41 43.35, 0.48 36.63 C-0.45 29.91, 1.11 21.02, 4.76 15.05 C8.41 9.07, 19.17 2.9, 22.38 0.78 C25.58 -1.35, 23.65 1.57, 24.01 2.29 M33.62 1.14 C40.05 1.15, 48.28 4.65, 53.11 8.9 C57.95 13.16, 61.81 19.87, 62.63 26.67 C63.46 33.48, 61.65 43.69, 58.06 49.72 C54.47 55.76, 47.34 61.29, 41.1 62.89 C34.86 64.5, 27.09 62.23, 20.6 59.36 C14.1 56.49, 5.46 51.28, 2.14 45.66 C-1.18 40.04, -1.03 32.34, 0.69 25.62 C2.41 18.91, 7.3 9.67, 12.45 5.35 C17.6 1.03, 28.3 0.28, 31.6 -0.32 C34.9 -0.93, 32.03 1.07, 32.26 1.73" stroke="none" stroke-width="0" fill="#82c91e"></path><path d="M41.28 0.54 C47.3 2.25, 53.44 9.23, 57.05 14.84 C60.65 20.45, 63.68 27.65, 62.89 34.19 C62.1 40.74, 57.3 49.46, 52.31 54.1 C47.31 58.75, 39.32 61.52, 32.9 62.07 C26.48 62.62, 19.15 61.3, 13.76 57.41 C8.37 53.51, 2.45 45.26, 0.57 38.69 C-1.3 32.13, -0.57 24.03, 2.51 18.02 C5.6 12.01, 12.55 5.25, 19.1 2.65 C25.64 0.04, 37.63 2.46, 41.81 2.4 C45.99 2.34, 44.42 2.04, 44.16 2.28 M40.07 1.83 C46.25 3.27, 55.84 8.14, 59.48 13.74 C63.12 19.34, 62.87 28.61, 61.89 35.44 C60.91 42.27, 58.56 50.21, 53.6 54.72 C48.64 59.22, 38.85 62.26, 32.12 62.45 C25.4 62.65, 18.27 60.2, 13.28 55.89 C8.28 51.58, 3.86 43.05, 2.14 36.58 C0.41 30.11, 0.14 22.99, 2.93 17.05 C5.71 11.11, 12.65 3.54, 18.85 0.95 C25.05 -1.63, 36.32 1.54, 40.12 1.56 C43.93 1.57, 41.43 0.35, 41.68 1.03" stroke="#2f9e44" stroke-width="1" fill="none"></path></g><g transform="translate(790.2053029003446 440.2761363926237) rotate(0 5.020833492279053 12.5)"><text x="5.020833492279053" y="0" font-family="Virgil, Segoe UI Emoji" font-size="20px" fill="#1e1e1e" text-anchor="middle" style="white-space: pre;" direction="ltr" dominant-baseline="text-before-edge">c</text></g><g stroke-linecap="round" transform="translate(711 562.3) rotate(0 16.5 16.5)"><path d="M2.43 7.41 C2.43 7.41, 2.43 7.41, 2.43 7.41 M2.43 7.41 C2.43 7.41, 2.43 7.41, 2.43 7.41 M2.29 14.12 C4.66 9.57, 9.25 4.96, 12.33 1.7 M0.68 14.98 C4.09 11.1, 8.08 7.08, 13.26 1.19 M2.58 20.29 C6.63 14.47, 10.39 10.05, 17.5 0.21 M1.93 19.06 C8.51 13.41, 13.4 8.35, 17.5 2.89 M6.1 23.58 C7.9 20.57, 12.25 14.12, 22.43 3.04 M4.23 23.15 C10.02 14.89, 17.75 8.09, 21.01 3.01 M7.23 27.84 C10.16 18.99, 18.18 14.66, 25.2 2.96 M7.06 27.64 C13.44 19.79, 19.42 11.67, 25.94 4.56 M7.62 31.98 C13.88 26.9, 17.88 22.31, 30.62 6.29 M9.1 30.45 C13.69 24.91, 18.42 18.2, 30.01 6.69 M12.51 30.69 C21.29 22.27, 25.89 14.03, 31.69 8.83 M12.99 32.36 C18.64 25.52, 22.76 20.82, 32.6 8.92 M17.16 35.71 C18.8 28.26, 25.54 23.68, 32.73 15.71 M16.33 34.6 C22.62 28.27, 27.83 22.7, 32.39 15.55 M22.54 32.26 C27.45 29.45, 30.05 23.55, 32.38 19.66 M23.59 31.93 C25.32 29.27, 28.76 26.88, 32.82 20.14 M5.73 28.47 C5.73 28.47, 5.73 28.47, 5.73 28.47 M5.73 28.47 C5.73 28.47, 5.73 28.47, 5.73 28.47 M14.78 33.64 C11.69 26.49, 6.25 25.21, 1.98 20.82 M15.64 32.71 C13.38 27.97, 9.88 26.11, 0.97 17.92 M19.91 31.13 C15.78 27.41, 11.63 21.89, 1.45 14.9 M20.31 31.27 C15.43 25.44, 10.09 21.97, 1.72 14.75 M24.8 29.63 C19.4 26.35, 12.92 21.12, 1.85 9.36 M24.07 29.69 C19.13 23.66, 13.59 19.64, 2.34 10.03 M27.46 27.8 C25.37 23.58, 20.48 16.37, 5.84 5.21 M28.76 26.08 C21.91 21.53, 17.42 18, 3.71 5.5 M32.86 22.99 C24.85 17.21, 18.73 13.84, 5.16 1.62 M30.08 23.78 C24.61 18.27, 18.88 13.22, 7.77 3.5 M30.84 20.36 C23.26 11.75, 18.22 5.32, 10.26 0.27 M32.05 20.88 C23.29 12.59, 15.96 4.41, 9.68 -0.21 M32.95 12.6 C23.36 7.19, 16.73 0.65, 12.7 -1.59 M32.39 14.43 C25.65 9.11, 17.88 2.65, 12.76 -2.97" stroke="#b2f2bb" stroke-width="0.5" fill="none"></path><path d="M11.26 -0.34 C14.49 -1.42, 20.01 0.27, 23.34 1.74 C26.68 3.21, 29.74 5.33, 31.26 8.46 C32.78 11.59, 33.23 17, 32.45 20.52 C31.66 24.04, 29.43 27.6, 26.54 29.58 C23.64 31.56, 18.58 32.6, 15.07 32.39 C11.57 32.17, 7.98 30.77, 5.52 28.29 C3.07 25.81, 0.9 20.94, 0.35 17.5 C-0.21 14.07, -0.04 10.45, 2.2 7.67 C4.44 4.89, 11.77 1.9, 13.77 0.83 C15.76 -0.25, 13.98 1.04, 14.15 1.23 M9.97 -0.53 C13.1 -1.54, 19.32 0.63, 22.61 2.29 C25.89 3.95, 27.98 6.56, 29.69 9.41 C31.4 12.27, 33.44 15.85, 32.89 19.4 C32.34 22.95, 29.45 28.23, 26.4 30.73 C23.36 33.23, 18.33 34.49, 14.64 34.4 C10.94 34.31, 6.5 33, 4.24 30.2 C1.99 27.4, 1.59 21.14, 1.12 17.61 C0.65 14.08, -0.18 12.01, 1.44 9.04 C3.07 6.08, 9.08 1.19, 10.88 -0.18 C12.68 -1.55, 11.97 0.27, 12.24 0.82" stroke="#2f9e44" stroke-width="1" fill="none"></path></g><g stroke-linecap="round" transform="translate(790 519.3) rotate(0 16.5 16.5)"><path d="M2.37 7.36 C2.37 7.36, 2.37 7.36, 2.37 7.36 M2.37 7.36 C2.37 7.36, 2.37 7.36, 2.37 7.36 M1.75 15.89 C5.13 10.58, 10.26 5.73, 12.6 1.46 M-0.86 16.13 C3.95 10.7, 7.78 6.93, 13.62 0.83 M-0.6 21.76 C6.8 13.48, 10.99 8.89, 19.36 1.17 M1.68 20.48 C6.97 13.75, 13.01 6.44, 17.82 0.63 M4.18 25.11 C9.65 19.48, 13.19 11.32, 21.66 1.05 M3.47 23.46 C10.49 16.47, 18.28 7.92, 23.71 1.15 M3.5 27.35 C10.05 20.32, 17.35 13.07, 28.51 3.26 M4.61 28.14 C13.14 20.21, 18.95 11.26, 26.47 3.54 M7.96 30.98 C14.96 22.48, 23.11 15.04, 28.16 5.45 M9.14 30.99 C15.68 22.78, 21.3 16.74, 29.29 7.82 M14.5 31.75 C16.8 25.6, 20.5 20.41, 32.55 10.34 M12.71 32.61 C20.02 24.44, 24.64 17.95, 32.13 11.02 M17.41 32.74 C18.73 28.11, 25.88 24.63, 33.03 16.65 M15.89 34.37 C21 28.74, 25.79 23.08, 32 16.71 M23.06 31.59 C27.05 29.71, 29.23 25.68, 32.14 20.83 M23.31 32.02 C26.36 28.71, 27.86 25.46, 32.76 21.07 M4.67 28.16 C4.67 28.16, 4.67 28.16, 4.67 28.16 M4.67 28.16 C4.67 28.16, 4.67 28.16, 4.67 28.16 M18.02 31.27 C12.33 27.55, 5.69 23.84, -0.74 18.37 M15.86 33.33 C13.3 29.22, 8.96 25.84, -0.75 18.53 M21.44 33.18 C13.35 28.79, 9.61 21.2, 1.42 13.28 M19.98 31.37 C14.54 24.8, 6.67 19.23, 1.84 15.14 M24.55 32.21 C18.05 20.7, 5.64 12.85, 2.12 9.87 M24.61 29.35 C19.37 26.7, 15.93 21.86, 1.15 9.94 M27.27 29.17 C22.74 23.42, 18.41 20.81, 3.61 4.71 M29.08 28.89 C22.89 22.39, 16.65 18.89, 3.75 7.19 M29.73 23.84 C22.38 17.32, 16.42 12.07, 5.49 1.97 M31.62 23.93 C24.42 18.18, 16.18 12.5, 8.21 3.22 M31.94 19.89 C26.16 13.9, 22.2 8.73, 10.78 1.09 M33.46 20.28 C24.73 15.22, 18.82 9.22, 9.61 0.61 M32.83 13.94 C28.93 12.22, 25.15 7.55, 14.89 -1.69 M32.36 15.2 C28.16 10.52, 22.24 7.71, 14.93 0.33 M31.15 8.6 C29.02 6.85, 24.08 5, 19.84 -1.39 M31.72 8.9 C27.07 6.12, 22.99 1.45, 19.76 -0.18" stroke="#b2f2bb" stroke-width="0.5" fill="none"></path><path d="M23.82 1.27 C27.09 2.67, 30.45 6.61, 31.79 9.89 C33.13 13.18, 32.74 17.6, 31.85 20.97 C30.95 24.34, 29.07 28.06, 26.41 30.12 C23.75 32.18, 19.49 33.62, 15.91 33.33 C12.34 33.05, 7.69 30.78, 4.96 28.41 C2.23 26.04, -0.02 22.59, -0.47 19.1 C-0.92 15.61, 0.02 10.47, 2.26 7.49 C4.5 4.5, 9.41 2.31, 12.96 1.21 C16.52 0.12, 21.55 0.54, 23.59 0.92 C25.62 1.29, 25.11 2.92, 25.17 3.48 M16.08 1.28 C19.37 0.49, 24.23 0.24, 26.91 1.91 C29.6 3.59, 31.39 7.87, 32.18 11.34 C32.97 14.82, 33.23 19.32, 31.68 22.75 C30.13 26.19, 26.18 30.21, 22.89 31.93 C19.61 33.65, 15.43 34.07, 11.97 33.06 C8.52 32.06, 4.24 28.85, 2.17 25.87 C0.09 22.9, -0.78 18.52, -0.48 15.19 C-0.18 11.87, 1.58 8.45, 3.97 5.92 C6.36 3.39, 12 0.98, 13.87 0 C15.74 -0.98, 15.16 -0.05, 15.21 0.05" stroke="#2f9e44" stroke-width="1" fill="none"></path></g><g stroke-linecap="round" transform="translate(802 605.3) rotate(0 16.5 16.5)"><path d="M4.52 5.25 C4.52 5.25, 4.52 5.25, 4.52 5.25 M4.52 5.25 C4.52 5.25, 4.52 5.25, 4.52 5.25 M1.06 17.24 C4.07 12.74, 9.25 8.07, 13.71 1.02 M-0.58 15.77 C3.55 11.43, 8.4 7.93, 13.08 2.23 M1.13 18.74 C6.82 15.57, 11.63 7.3, 17.6 0.54 M2.68 20.78 C5.15 15.96, 8.63 12.5, 16.89 1.66 M2.44 26.8 C6.97 21.23, 11.59 17.65, 20.8 2.75 M2.64 24.76 C10.13 17.58, 18.01 8.1, 21.61 3.66 M5.95 27.47 C9.89 21.72, 18.26 16.63, 28.17 4.32 M6.03 28.6 C14.91 18.27, 22.5 9.46, 28.69 2.71 M7.72 32.11 C14.37 25.58, 19.37 16.83, 29.65 7.95 M8.97 31.7 C17.47 21.52, 25.82 12.68, 30.02 6.41 M11.77 34.07 C17.65 27.75, 20.26 23.11, 31.03 11.12 M12.45 33.05 C18.22 26.39, 23.63 21.15, 31.17 10.6 M16.44 32.25 C22.92 24.66, 31.81 19.81, 32.39 15.8 M17.07 33.19 C22.42 26.52, 29.02 20.24, 34.53 13.64 M23.39 32.68 C26.15 29.93, 29.92 27.65, 33.28 20.91 M22.89 32.37 C26.89 27.9, 31.32 23.4, 34.58 19.51 M2.55 26.02 C2.55 26.02, 2.55 26.02, 2.55 26.02 M2.55 26.02 C2.55 26.02, 2.55 26.02, 2.55 26.02 M12.89 31.38 C10.54 29.28, 7.24 24.5, -0.27 19.18 M14.13 31.76 C10.07 27.33, 3.85 22.6, 0.28 19.95 M17.72 29.97 C12.07 21.83, 4.81 15.84, -0.51 12.26 M19.66 29 C15.32 25.78, 11.72 22.73, 0.27 14.72 M26.65 29.2 C17.69 23.11, 15.08 18.6, 3.54 12.39 M25.67 29.34 C19.45 24.03, 11.18 17.54, 2.43 10.22 M29.47 25.33 C19.94 21.69, 15.3 16.8, 5.98 5.5 M28.52 28.06 C18.37 18.7, 9.9 11.49, 3.72 5.75 M29.02 24.23 C23.86 18.49, 19.37 13.95, 8.55 2.53 M30.81 23.06 C24.92 19.13, 20.33 15.01, 6.99 2.58 M33.35 21.18 C23.99 13.64, 19.52 6.38, 11.28 1.94 M34.22 21.23 C25.48 13.2, 17.1 6.37, 10.39 0.91 M35.08 15.32 C26.72 12.38, 21.74 5.05, 15.7 -0.65 M33.45 15.22 C29.42 11.57, 24.37 7.24, 15.04 0.05 M32.3 11.45 C29.32 7.07, 25.81 3.95, 21.84 2.16 M33.27 10.29 C31.16 7.98, 27.85 5.59, 22.42 1.63" stroke="#b2f2bb" stroke-width="0.5" fill="none"></path><path d="M15.67 0.88 C18.97 0.17, 23.77 0.45, 26.54 2.23 C29.3 4.01, 31.4 8.12, 32.25 11.57 C33.1 15.02, 33.15 19.56, 31.63 22.93 C30.12 26.29, 26.4 30.08, 23.15 31.74 C19.9 33.4, 15.58 33.84, 12.13 32.87 C8.69 31.91, 4.56 28.91, 2.48 25.96 C0.41 23.02, -0.59 18.61, -0.31 15.22 C-0.02 11.83, 0.96 8.1, 4.21 5.61 C7.45 3.12, 15.76 0.86, 19.15 0.28 C22.54 -0.31, 24.56 1.94, 24.52 2.09 M16.34 -0.43 C19.6 -0.62, 24.7 1.33, 27.2 3.8 C29.7 6.26, 30.71 10.87, 31.35 14.38 C31.99 17.88, 32.75 21.98, 31.04 24.83 C29.34 27.67, 24.3 30.26, 21.12 31.44 C17.94 32.62, 15 32.8, 11.96 31.89 C8.92 30.98, 4.87 28.84, 2.88 25.98 C0.89 23.13, -0.29 18.41, 0.05 14.76 C0.38 11.11, 2.22 6.32, 4.9 4.09 C7.58 1.86, 14.17 2.06, 16.12 1.38 C18.06 0.7, 16.29 0, 16.57 0.02" stroke="#2f9e44" stroke-width="1" fill="none"></path></g><g transform="translate(522.5 97.79999999999998) rotate(0 65.32291412353516 12.5)"><text x="0" y="0" font-family="Virgil, Segoe UI Emoji" font-size="20px" fill="#1971c2" text-anchor="start" style="white-space: pre;" direction="ltr" dominant-baseline="text-before-edge">Shared region</text></g><g transform="translate(572.7604160308838 145.29999999999998) rotate(0 71.42708587646484 25)"><text x="0" y="0" font-family="Virgil, Segoe UI Emoji" font-size="20px" fill="#1971c2" text-anchor="start" style="white-space: pre;" direction="ltr" dominant-baseline="text-before-edge">Boundary of </text><text x="0" y="25" font-family="Virgil, Segoe UI Emoji" font-size="20px" fill="#1971c2" text-anchor="start" style="white-space: pre;" direction="ltr" dominant-baseline="text-before-edge">isolated region</text></g><g transform="translate(600.7604160308838 268.29999999999995) rotate(0 73.86458587646484 12.5)"><text x="0" y="0" font-family="Virgil, Segoe UI Emoji" font-size="20px" fill="#1971c2" text-anchor="start" style="white-space: pre;" direction="ltr" dominant-baseline="text-before-edge">Mutable object</text></g><g stroke-linecap="round"><g transform="translate(516.5 113.79999999999998) rotate(0 -22 10.5)"><path d="M0 0 C-7.33 3.5, -36.67 17.5, -44 21 M0 0 C-7.33 3.5, -36.67 17.5, -44 21" stroke="#1971c2" stroke-width="1" fill="none"></path></g></g><mask></mask><g stroke-linecap="round"><g transform="translate(564.5304244782496 173.169989587618) rotate(0 -20.5 26.5)"><path d="M0 0 C-6.83 8.83, -34.17 44.17, -41 53 M0 0 C-6.83 8.83, -34.17 44.17, -41 53" stroke="#1971c2" stroke-width="1" fill="none"></path></g></g><mask></mask><g stroke-linecap="round"><g transform="translate(587.5 279.79999999999995) rotate(0 -32 1)"><path d="M0 0 C-10.67 0.33, -53.33 1.67, -64 2 M0 0 C-10.67 0.33, -53.33 1.67, -64 2" stroke="#1971c2" stroke-width="1" fill="none"></path></g></g><mask></mask><g stroke-linecap="round"><g transform="translate(359.48660179541093 404.03860293819014) rotate(0 -57.33179087593817 95.46701023100127)"><path d="M0 0 C-4.16 20.29, -5.88 89.94, -24.99 121.76 C-44.1 153.58, -99.72 179.41, -114.66 190.93" stroke="#e03131" stroke-width="1.5" fill="none" stroke-dasharray="8 9"></path></g><g transform="translate(359.48660179541093 404.03860293819014) rotate(0 -57.33179087593817 95.46701023100127)"><path d="M-96.23 167.27 C-103.04 176.01, -109.85 184.75, -114.66 190.93" stroke="#e03131" stroke-width="1.5" fill="none"></path></g><g transform="translate(359.48660179541093 404.03860293819014) rotate(0 -57.33179087593817 95.46701023100127)"><path d="M-85.33 184.65 C-96.16 186.97, -107 189.29, -114.66 190.93" stroke="#e03131" stroke-width="1.5" fill="none"></path></g></g><mask></mask><g stroke-linecap="round"><g transform="translate(344.01546553160324 393.4574759095809) rotate(0 -68.95104957391811 15.768216133219255)"><path d="M0 0 C-22.98 5.26, -114.92 26.28, -137.9 31.54 M0 0 C-22.98 5.26, -114.92 26.28, -137.9 31.54" stroke="#1e1e1e" stroke-width="2" fill="none"></path></g><g transform="translate(344.01546553160324 393.4574759095809) rotate(0 -68.95104957391811 15.768216133219255)"><path d="M-112.71 15.25 C-119.75 19.8, -126.79 24.35, -137.9 31.54 M-112.71 15.25 C-119.45 19.61, -126.19 23.97, -137.9 31.54" stroke="#1e1e1e" stroke-width="2" fill="none"></path></g><g transform="translate(344.01546553160324 393.4574759095809) rotate(0 -68.95104957391811 15.768216133219255)"><path d="M-108.13 35.25 C-116.45 34.22, -124.78 33.18, -137.9 31.54 M-108.13 35.25 C-116.1 34.26, -124.07 33.26, -137.9 31.54" stroke="#1e1e1e" stroke-width="2" fill="none"></path></g></g><mask></mask><g stroke-linecap="round"><g transform="translate(199.070117574111 416.55530066028007) rotate(0 75.3580387319372 -31.155726980092822)"><path d="M0 0 C11.9 -10.13, 46.31 -53.38, 71.43 -60.76 C96.55 -68.13, 137.5 -47.02, 150.72 -44.28" stroke="#e03131" stroke-width="1.5" fill="none" stroke-dasharray="8 9"></path></g><g transform="translate(199.070117574111 416.55530066028007) rotate(0 75.3580387319372 -31.155726980092822)"><path d="M120.72 -43.6 C126.98 -43.74, 133.23 -43.88, 150.72 -44.28" stroke="#e03131" stroke-width="1.5" fill="none"></path></g><g transform="translate(199.070117574111 416.55530066028007) rotate(0 75.3580387319372 -31.155726980092822)"><path d="M127.31 -63.04 C132.19 -59.13, 137.07 -55.21, 150.72 -44.28" stroke="#e03131" stroke-width="1.5" fill="none"></path></g></g><mask></mask><g stroke-linecap="round"><g transform="translate(248.97953891239013 604.186922271564) rotate(0 64.46971623192485 -102.193461135782)"><path d="M0 0 C19.75 -10.56, 97.93 -29.32, 118.52 -63.39 C139.11 -97.45, 122.69 -180.89, 123.52 -204.39" stroke="#e03131" stroke-width="1.5" fill="none" stroke-dasharray="8 9"></path></g><g transform="translate(248.97953891239013 604.186922271564) rotate(0 64.46971623192485 -102.193461135782)"><path d="M135.75 -176.99 C131.82 -185.8, 127.89 -194.6, 123.52 -204.39" stroke="#e03131" stroke-width="1.5" fill="none"></path></g><g transform="translate(248.97953891239013 604.186922271564) rotate(0 64.46971623192485 -102.193461135782)"><path d="M115.28 -175.54 C117.93 -184.81, 120.58 -194.08, 123.52 -204.39" stroke="#e03131" stroke-width="1.5" fill="none"></path></g></g><mask></mask><g stroke-linecap="round"><g transform="translate(493.8427974043302 291.74215779729184) rotate(0 -58.417872759246166 41.49681024400054)"><path d="M0 0 C-19.47 13.83, -97.36 69.16, -116.84 82.99 M0 0 C-19.47 13.83, -97.36 69.16, -116.84 82.99" stroke="#1e1e1e" stroke-width="2" fill="none"></path></g><g transform="translate(493.8427974043302 291.74215779729184) rotate(0 -58.417872759246166 41.49681024400054)"><path d="M-99.8 58.3 C-103.81 64.12, -107.83 69.94, -116.84 82.99 M-99.8 58.3 C-105.34 66.34, -110.88 74.37, -116.84 82.99" stroke="#1e1e1e" stroke-width="2" fill="none"></path></g><g transform="translate(493.8427974043302 291.74215779729184) rotate(0 -58.417872759246166 41.49681024400054)"><path d="M-87.91 75.03 C-94.73 76.91, -101.55 78.79, -116.84 82.99 M-87.91 75.03 C-97.32 77.62, -106.73 80.21, -116.84 82.99" stroke="#1e1e1e" stroke-width="2" fill="none"></path></g></g><mask></mask><g stroke-linecap="round"><g transform="translate(408 259.29999999999995) rotate(0 -19.13003351650991 55.234082981944425)"><path d="M0 0 C-6.38 18.41, -31.88 92.06, -38.26 110.47 M0 0 C-6.38 18.41, -31.88 92.06, -38.26 110.47" stroke="#1e1e1e" stroke-width="2" fill="none"></path></g><g transform="translate(408 259.29999999999995) rotate(0 -19.13003351650991 55.234082981944425)"><path d="M-38.73 80.47 C-38.59 89.27, -38.45 98.06, -38.26 110.47 M-38.73 80.47 C-38.54 92.43, -38.36 104.38, -38.26 110.47" stroke="#1e1e1e" stroke-width="2" fill="none"></path></g><g transform="translate(408 259.29999999999995) rotate(0 -19.13003351650991 55.234082981944425)"><path d="M-19.34 87.19 C-24.89 94.01, -30.43 100.84, -38.26 110.47 M-19.34 87.19 C-26.88 96.47, -34.42 105.75, -38.26 110.47" stroke="#1e1e1e" stroke-width="2" fill="none"></path></g></g><mask></mask><g stroke-linecap="round"><g transform="translate(416 684.3) rotate(0 -31.5 -0.5)"><path d="M0 0 C-10.5 -0.17, -52.5 -0.83, -63 -1 M0 0 C-10.5 -0.17, -52.5 -0.83, -63 -1" stroke="#1e1e1e" stroke-width="2" fill="none"></path></g><g transform="translate(416 684.3) rotate(0 -31.5 -0.5)"><path d="M-34.65 -10.81 C-42.44 -8.12, -50.23 -5.42, -63 -1 M-34.65 -10.81 C-41.44 -8.46, -48.22 -6.11, -63 -1" stroke="#1e1e1e" stroke-width="2" fill="none"></path></g><g transform="translate(416 684.3) rotate(0 -31.5 -0.5)"><path d="M-34.98 9.71 C-42.67 6.77, -50.37 3.82, -63 -1 M-34.98 9.71 C-41.68 7.14, -48.39 4.58, -63 -1" stroke="#1e1e1e" stroke-width="2" fill="none"></path></g></g><mask></mask><g stroke-linecap="round"><g transform="translate(432 744.3) rotate(0 -38 8.517971780312621)"><path d="M0 0 C-6 3.83, -23.33 24, -36 23 C-48.67 22, -69.33 -1.17, -76 -6" stroke="#e03131" stroke-width="1.5" fill="none" stroke-dasharray="8 9"></path></g><g transform="translate(432 744.3) rotate(0 -38 8.517971780312621)"><path d="M-53.06 3.16 C-60.63 0.14, -68.19 -2.88, -76 -6" stroke="#e03131" stroke-width="1.5" fill="none"></path></g><g transform="translate(432 744.3) rotate(0 -38 8.517971780312621)"><path d="M-64.32 15.77 C-68.17 8.59, -72.02 1.41, -76 -6" stroke="#e03131" stroke-width="1.5" fill="none"></path></g></g><mask></mask><g transform="translate(435.7604160308838 672.3) rotate(0 63.41666793823242 12.5)"><text x="0" y="0" font-family="Virgil, Segoe UI Emoji" font-size="20px" fill="#1971c2" text-anchor="start" style="white-space: pre;" direction="ltr" dominant-baseline="text-before-edge">OK reference</text></g><g transform="translate(452.0833320617676 727.3) rotate(0 71.66666412353516 12.5)"><text x="0" y="0" font-family="Virgil, Segoe UI Emoji" font-size="20px" fill="#1971c2" text-anchor="start" style="white-space: pre;" direction="ltr" dominant-baseline="text-before-edge">BAD reference</text></g><g transform="translate(819.5 95.79999999999998) rotate(0 93.83333587646484 24)"><text x="0" y="0" font-family="Cascadia, Segoe UI Emoji" font-size="20px" fill="#1e1e1e" text-anchor="start" style="white-space: pre;" direction="ltr" dominant-baseline="text-before-edge"># behaviour B1</text><text x="0" y="24" font-family="Cascadia, Segoe UI Emoji" font-size="20px" fill="#1e1e1e" text-anchor="start" style="white-space: pre;" direction="ltr" dominant-baseline="text-before-edge">when (a, b): ...</text></g><g transform="translate(819.5 175.29999999999998) rotate(0 93.83333587646484 24)"><text x="0" y="0" font-family="Cascadia, Segoe UI Emoji" font-size="20px" fill="#1e1e1e" text-anchor="start" style="white-space: pre;" direction="ltr" dominant-baseline="text-before-edge"># behaviour B2</text><text x="0" y="24" font-family="Cascadia, Segoe UI Emoji" font-size="20px" fill="#1e1e1e" text-anchor="start" style="white-space: pre;" direction="ltr" dominant-baseline="text-before-edge">when (a, c): ...</text></g><g transform="translate(819.5 254.79999999999998) rotate(0 82.10416412353516 24)"><text x="0" y="0" font-family="Cascadia, Segoe UI Emoji" font-size="20px" fill="#1e1e1e" text-anchor="start" style="white-space: pre;" direction="ltr" dominant-baseline="text-before-edge"># behaviour B3</text><text x="0" y="24" font-family="Cascadia, Segoe UI Emoji" font-size="20px" fill="#1e1e1e" text-anchor="start" style="white-space: pre;" direction="ltr" dominant-baseline="text-before-edge">when (c): ...</text></g><g stroke-linecap="round" transform="translate(166 216.29999999999998) rotate(0 16.5 16.5)"><path d="M8.2 1.83 C8.2 1.83, 8.2 1.83, 8.2 1.83 M8.2 1.83 C8.2 1.83, 8.2 1.83, 8.2 1.83 M4.4 10.24 C7.32 8.34, 10.71 4.53, 14.94 1.47 M5.72 11.12 C8.26 7.92, 11.11 4.27, 14.26 0.79 M0.97 20.08 C8.29 11.19, 16.29 3.76, 20.36 -1.06 M1.59 22.11 C8.28 12.86, 14.81 6.95, 20.2 0.47 M3.09 23.88 C11.03 17.65, 17.19 9.97, 22.62 1.54 M3.54 25.08 C7.95 19.46, 12.21 14.69, 22.32 3.58 M4.64 27.57 C8.16 24.23, 15.95 20.34, 27.21 4.06 M6.24 29.21 C12.01 21.64, 18.76 15.01, 27.68 5.36 M8.57 30.79 C14.41 28.43, 18.76 20.76, 30.58 7.41 M7.31 32.45 C13.16 26.96, 18.05 20.78, 31.11 6.12 M10.92 33.03 C17.15 28.1, 19.66 21.76, 31.61 13.23 M12.46 32.63 C18.78 25.94, 26.04 17.18, 30.9 11.99 M18.56 34.26 C23.92 28.59, 26.57 20.99, 31.33 17.22 M17.74 34.75 C21.75 29.01, 26.37 23.94, 32.85 16.9 M19.58 34.31 C24.91 33.59, 26.77 28.38, 34.63 18.32 M20.25 34.82 C25.17 29.21, 31.02 24.24, 34.45 20.26 M7.12 31.44 C7.12 31.44, 7.12 31.44, 7.12 31.44 M7.12 31.44 C7.12 31.44, 7.12 31.44, 7.12 31.44 M14.89 30.97 C10.04 28.13, 4.45 25.04, -0.17 22.3 M14.48 32.86 C10.8 29.29, 8.09 25.8, 0.64 19.65 M18.22 33.28 C16.3 26.75, 12 23.81, 1.45 17.31 M20.63 32.4 C15.58 28.1, 10.29 22.46, 3.46 18.53 M23.93 28.83 C19.29 23.19, 14.12 21.47, 5.19 12.28 M22.96 30.11 C19.08 25.84, 15.15 21.32, 3.92 12.74 M27.97 29.51 C23.04 22.97, 15 16.13, 4.52 6.8 M26.46 28.73 C22.03 23.77, 15.63 17.53, 3.93 7.8 M29.78 24.28 C24.02 21.18, 19.23 15.2, 8.46 3.74 M30.18 26.42 C22.75 17.39, 13.73 9.78, 7.3 4.41 M34.01 21.25 C21.59 13.54, 15.82 4.93, 8.58 2.49 M33.35 21.59 C24.64 15.9, 18.67 9.72, 9.32 0.01 M35.69 17.91 C28.29 10.52, 18.56 7.29, 12.23 -0.31 M32.93 17.77 C25.68 10.31, 18.7 5.19, 14.36 0.05 M31.97 10.79 C27.71 7.57, 24.49 6.73, 19.98 1.54 M31.92 10.04 C28.3 6.99, 24.97 4.16, 19.84 1.02" stroke="#ffc9c9" stroke-width="0.5" fill="none"></path><path d="M8.44 1.56 C11.4 -0.05, 16.7 -0.35, 20.32 0.53 C23.95 1.41, 28.02 3.88, 30.2 6.84 C32.39 9.81, 33.65 14.96, 33.42 18.35 C33.19 21.73, 31.23 24.64, 28.82 27.16 C26.41 29.67, 22.65 32.78, 18.97 33.44 C15.3 34.11, 9.81 33.31, 6.78 31.15 C3.75 28.99, 1.52 24.21, 0.79 20.51 C0.05 16.8, 0.54 12.06, 2.38 8.89 C4.21 5.72, 10.04 2.88, 11.81 1.47 C13.58 0.06, 12.97 0.13, 13 0.42 M12.89 -0.19 C16.08 -0.86, 20.11 0.51, 23.48 2.33 C26.86 4.16, 31.67 7.63, 33.16 10.77 C34.65 13.91, 33.66 17.64, 32.42 21.17 C31.19 24.69, 29.03 29.85, 25.78 31.92 C22.52 33.99, 16.48 34.22, 12.91 33.59 C9.34 32.96, 6.47 30.94, 4.35 28.15 C2.23 25.37, 0.58 20.33, 0.2 16.89 C-0.18 13.46, -0.29 10.46, 2.08 7.53 C4.45 4.6, 12.73 0.62, 14.43 -0.71 C16.14 -2.03, 12.58 -0.89, 12.3 -0.41" stroke="#e03131" stroke-width="1" fill="none"></path></g><g stroke-linecap="round" transform="translate(13 295.29999999999995) rotate(0 16.5 16.5)"><path d="M4.06 6.18 C4.06 6.18, 4.06 6.18, 4.06 6.18 M4.06 6.18 C4.06 6.18, 4.06 6.18, 4.06 6.18 M-0.54 15 C2.41 13.42, 5.93 7.68, 14.98 -0.37 M1.37 16.86 C3.15 12.49, 6.5 8.73, 14.42 -0.13 M3.13 21.16 C7.79 16.02, 13.83 9.13, 20.66 1.56 M2.63 20.26 C6.55 16.56, 11.07 11.77, 19.32 1.04 M4.89 22.83 C12.09 15.47, 16.01 7.5, 24.53 3.16 M3.19 25.2 C9.66 18.46, 14.65 10.5, 22.64 1.27 M7.22 28.32 C11.4 22.94, 16.93 14.76, 27.81 4.76 M5.62 27.71 C12.51 18.89, 20.29 11.78, 27.51 5.59 M8.29 31.31 C14.02 26.09, 18.45 19.61, 30.03 6.9 M10.29 30.14 C14.01 23.97, 20.07 19.08, 29.53 7.22 M10.34 32.45 C21.9 23.55, 25.68 17.42, 33.52 8.48 M12.22 33.3 C20.36 25.89, 27.09 17.8, 33.54 10.31 M18 34.74 C21.68 26.76, 30.7 18.34, 36.42 11.64 M15.88 34.42 C22.38 26.51, 30.24 18.55, 35.21 13.39 M22.6 33.33 C25.81 28.55, 30.18 26.62, 33.35 23.01 M22.02 33.5 C25.69 30.88, 27.15 28.25, 32.37 23.14 M4.4 26.95 C4.4 26.95, 4.4 26.95, 4.4 26.95 M4.4 26.95 C4.4 26.95, 4.4 26.95, 4.4 26.95 M15.08 32.6 C10.71 26.59, 6.35 21.69, -0.85 18.31 M16.1 31.12 C10.49 26.17, 5.43 21.67, 0.25 19.03 M18.5 30.91 C13.15 25.31, 9.09 19.36, 2.49 12.42 M19.83 31.01 C16.21 26.99, 11.51 23.42, 0.93 13.07 M25.78 29.66 C16.99 23.37, 11.19 17.33, 1.54 9.52 M27.15 30.23 C21.18 25.42, 17.04 21.35, 2.71 9.12 M29.25 28.64 C23.74 22.21, 18.2 17.45, 3.38 5.94 M27.6 26.96 C23.53 22.47, 18.16 17.29, 5.21 6.61 M31.56 23.96 C24.21 18.1, 17.66 13.9, 7.58 4.5 M31.03 23.83 C21.84 16.8, 15.47 9.5, 8.45 2.41 M31.65 21.31 C23.13 13.23, 18.34 5.12, 12.63 3.54 M32.11 19.57 C28.03 16.18, 23.52 10.95, 11.86 2.59 M33.18 13.57 C25.34 11.14, 18.52 3.45, 16.88 -1.5 M33.19 15.27 C28.68 10.53, 22.31 5.52, 15.59 -1.5" stroke="#ffc9c9" stroke-width="0.5" fill="none"></path><path d="M14.5 -0.28 C17.6 -0.95, 20.89 0.3, 23.93 2.12 C26.97 3.93, 31.57 7.37, 32.76 10.62 C33.94 13.88, 32.22 18.26, 31.03 21.64 C29.83 25.02, 28.49 28.94, 25.6 30.93 C22.7 32.91, 17.14 34.18, 13.65 33.55 C10.16 32.92, 7.01 30.11, 4.65 27.16 C2.29 24.22, -0.39 19.33, -0.52 15.87 C-0.65 12.41, 1.34 8.87, 3.87 6.4 C6.4 3.93, 12.55 2.16, 14.68 1.03 C16.8 -0.09, 16.59 -0.62, 16.61 -0.35 M18.5 -0.02 C21.85 0.28, 25.87 3.13, 28.08 6.01 C30.28 8.89, 31.78 13.71, 31.74 17.27 C31.69 20.84, 29.74 24.96, 27.81 27.39 C25.88 29.81, 23.54 31.45, 20.14 31.81 C16.75 32.16, 10.58 30.88, 7.43 29.52 C4.28 28.16, 2.2 26.67, 1.26 23.64 C0.33 20.61, 0.8 14.89, 1.84 11.36 C2.88 7.82, 4.5 4.15, 7.51 2.42 C10.52 0.7, 17.86 1.25, 19.89 1.01 C21.92 0.77, 19.89 0.77, 19.69 0.97" stroke="#e03131" stroke-width="1" fill="none"></path></g><g stroke-linecap="round" transform="translate(10 157.29999999999998) rotate(0 16.5 16.5)"><path d="M2.72 7.66 C2.72 7.66, 2.72 7.66, 2.72 7.66 M2.72 7.66 C2.72 7.66, 2.72 7.66, 2.72 7.66 M-0.07 16.33 C4.96 10.76, 11.21 6.45, 15.44 1.3 M1.37 16.02 C4.18 11.65, 8.4 5.72, 12.97 1.67 M1.85 18.97 C9.25 13.46, 14.92 5.08, 16.92 -0.37 M1.67 20.92 C6.13 15.69, 10.59 11.13, 18.82 2.18 M3.95 23.24 C9.28 16.16, 13.97 10.6, 23.69 3.71 M3.04 24.08 C12.3 15.84, 19.86 6.94, 22.81 2.14 M5.31 29.92 C11.16 20.22, 16.59 15.1, 27.71 4.32 M6.22 26.97 C11.79 22.09, 17.7 13.26, 27.26 5 M6.77 31.13 C13.49 27.77, 19.22 21.66, 30.48 8.94 M8.78 32.35 C15.54 22.44, 22.83 15.12, 29.23 7.89 M13.82 32.95 C15.2 26.26, 21.08 22.09, 33.66 10.16 M12.56 33.41 C18.13 25.74, 24.24 18.77, 33.44 10.63 M17.78 32.82 C21.17 29.31, 27.8 20.01, 34.71 16.07 M17.19 33.81 C22.21 27.93, 28.59 19.92, 32.41 14.64 M24.94 31.83 C27.59 29.93, 29.55 24.75, 34.75 22.37 M24.08 32.33 C26.55 29.84, 28.36 27.34, 33.2 20.39 M5.25 29.02 C5.25 29.02, 5.25 29.02, 5.25 29.02 M5.25 29.02 C5.25 29.02, 5.25 29.02, 5.25 29.02 M13.58 31.82 C13.89 29.66, 9.6 25.13, 1.54 19.3 M15.6 32.17 C11.65 28.9, 8.41 26.83, 1.21 19.3 M17.26 30.63 C13.77 25.01, 8.39 22.56, 1.51 15.42 M17.08 29.93 C15.92 27.06, 12.15 24.41, 3.46 15.95 M22.83 26.74 C17.73 24.68, 12.12 19.45, 3.81 13.85 M23.64 29.1 C16.06 22.16, 8.33 15.55, 4.81 12.02 M30.38 29.45 C21.21 18.9, 10.92 13.47, 2.46 7.93 M29.16 27.44 C23.86 22.5, 18.11 19.66, 3.25 6.84 M30.8 22.69 C20.46 17.06, 13.19 10.17, 6.6 4.11 M31.26 24.34 C20.31 15.87, 12.61 7.69, 6.93 4.91 M32.63 19.81 C26.37 16.32, 20.22 9.26, 9.04 1.8 M30.75 20.19 C26.75 15.68, 21.28 12.62, 9.09 0.33 M31.08 15.32 C25.92 8.63, 17.76 2.44, 14.42 -3.24 M31.06 14.69 C25.42 9.7, 20.66 3.85, 12.75 -1.26 M30.59 8.17 C26.05 6.35, 22.36 2.83, 20.28 -0.29 M31.02 8.48 C29.16 6.7, 26.85 5.47, 21.48 0.24" stroke="#ffc9c9" stroke-width="0.5" fill="none"></path><path d="M12.23 -0.23 C15.39 -1.23, 20.09 0.22, 23.14 1.63 C26.19 3.04, 29.12 5.12, 30.55 8.22 C31.97 11.32, 32.21 16.55, 31.68 20.22 C31.16 23.88, 30 28.15, 27.38 30.22 C24.76 32.29, 19.61 32.8, 15.95 32.62 C12.29 32.45, 7.95 31.42, 5.4 29.15 C2.86 26.89, 1.09 22.65, 0.67 19.03 C0.25 15.42, 0.75 10.56, 2.88 7.48 C5.01 4.39, 11.27 1.54, 13.45 0.5 C15.62 -0.54, 15.84 1.17, 15.95 1.25 M14.33 1.3 C17.63 1.03, 24.5 2.49, 27.41 4.39 C30.31 6.29, 31.02 9.59, 31.76 12.67 C32.5 15.76, 33.14 19.78, 31.85 22.88 C30.56 25.99, 27.6 29.69, 24.04 31.3 C20.48 32.91, 14.07 33.32, 10.49 32.54 C6.9 31.76, 4.38 29.47, 2.52 26.63 C0.65 23.78, -1.28 19.28, -0.7 15.47 C-0.11 11.66, 3.5 6.52, 6.02 3.75 C8.55 0.98, 12.72 -0.38, 14.46 -1.15 C16.19 -1.92, 16.29 -1.33, 16.42 -0.85" stroke="#e03131" stroke-width="1" fill="none"></path></g><g stroke-linecap="round"><g transform="translate(32 331.32872355475) rotate(0 58.745477088681355 90.96161339907664)"><path d="M0 0 C5.58 16.92, 13.92 71.18, 33.5 101.5 C53.08 131.82, 103.49 168.52, 117.49 181.92" stroke="#e03131" stroke-width="1.5" fill="none" stroke-dasharray="8 9"></path></g><g transform="translate(32 331.32872355475) rotate(0 58.745477088681355 90.96161339907664)"><path d="M89.37 171.46 C98.79 174.97, 108.21 178.47, 117.49 181.92" stroke="#e03131" stroke-width="1.5" fill="none"></path></g><g transform="translate(32 331.32872355475) rotate(0 58.745477088681355 90.96161339907664)"><path d="M102.68 155.84 C107.64 164.58, 112.6 173.32, 117.49 181.92" stroke="#e03131" stroke-width="1.5" fill="none"></path></g></g><mask></mask><g stroke-linecap="round"><g transform="translate(25.5 193.29999999999998) rotate(0 2 51.5)"><path d="M0 0 C0.67 17.17, 3.33 85.83, 4 103 M0 0 C0.67 17.17, 3.33 85.83, 4 103" stroke="#1e1e1e" stroke-width="2" fill="none"></path></g><g transform="translate(25.5 193.29999999999998) rotate(0 2 51.5)"><path d="M-7.35 75.23 C-3.2 85.39, 0.95 95.54, 4 103 M-7.35 75.23 C-2.88 86.15, 1.58 97.08, 4 103" stroke="#1e1e1e" stroke-width="2" fill="none"></path></g><g transform="translate(25.5 193.29999999999998) rotate(0 2 51.5)"><path d="M13.16 74.43 C9.81 84.88, 6.46 95.33, 4 103 M13.16 74.43 C9.56 85.67, 5.95 96.91, 4 103" stroke="#1e1e1e" stroke-width="2" fill="none"></path></g></g><mask></mask><g stroke-linecap="round"><g transform="translate(165.3532185074182 229.30173122163856) rotate(0 -59.892916805136565 -25.770661506179863)"><path d="M0 0 C-19.96 -8.59, -99.82 -42.95, -119.79 -51.54 M0 0 C-19.96 -8.59, -99.82 -42.95, -119.79 -51.54" stroke="#1e1e1e" stroke-width="2" fill="none"></path></g><g transform="translate(165.3532185074182 229.30173122163856) rotate(0 -59.892916805136565 -25.770661506179863)"><path d="M-89.84 -49.82 C-97.52 -50.26, -105.21 -50.71, -119.79 -51.54 M-89.84 -49.82 C-98.66 -50.33, -107.49 -50.84, -119.79 -51.54" stroke="#1e1e1e" stroke-width="2" fill="none"></path></g><g transform="translate(165.3532185074182 229.30173122163856) rotate(0 -59.892916805136565 -25.770661506179863)"><path d="M-97.95 -30.97 C-103.55 -36.25, -109.16 -41.53, -119.79 -51.54 M-97.95 -30.97 C-104.38 -37.04, -110.82 -43.1, -119.79 -51.54" stroke="#1e1e1e" stroke-width="2" fill="none"></path></g></g><mask></mask><g stroke-linecap="round"><g transform="translate(45.887558529037506 304.20408494930496) rotate(0 60.39762538765831 -30.177857500885352)"><path d="M0 0 C20.13 -10.06, 100.66 -50.3, 120.8 -60.36 M0 0 C20.13 -10.06, 100.66 -50.3, 120.8 -60.36" stroke="#1e1e1e" stroke-width="2" fill="none"></path></g><g transform="translate(45.887558529037506 304.20408494930496) rotate(0 60.39762538765831 -30.177857500885352)"><path d="M100.16 -38.58 C106.9 -45.69, 113.64 -52.8, 120.8 -60.36 M100.16 -38.58 C104.72 -43.38, 109.27 -48.19, 120.8 -60.36" stroke="#1e1e1e" stroke-width="2" fill="none"></path></g><g transform="translate(45.887558529037506 304.20408494930496) rotate(0 60.39762538765831 -30.177857500885352)"><path d="M90.99 -56.93 C100.72 -58.05, 110.46 -59.17, 120.8 -60.36 M90.99 -56.93 C97.57 -57.69, 104.15 -58.44, 120.8 -60.36" stroke="#1e1e1e" stroke-width="2" fill="none"></path></g></g><mask></mask><g stroke-linecap="round"><g transform="translate(395.4205669438686 244.89382434049833) rotate(0 -97.61435293244881 -5.297236980184799)"><path d="M0 0 C-32.54 -1.77, -162.69 -8.83, -195.23 -10.59 M0 0 C-32.54 -1.77, -162.69 -8.83, -195.23 -10.59" stroke="#1e1e1e" stroke-width="2" fill="none"></path></g><g transform="translate(395.4205669438686 244.89382434049833) rotate(0 -97.61435293244881 -5.297236980184799)"><path d="M-166.52 -19.31 C-176.6 -16.25, -186.67 -13.19, -195.23 -10.59 M-166.52 -19.31 C-177.94 -15.85, -189.35 -12.38, -195.23 -10.59" stroke="#1e1e1e" stroke-width="2" fill="none"></path></g><g transform="translate(395.4205669438686 244.89382434049833) rotate(0 -97.61435293244881 -5.297236980184799)"><path d="M-167.64 1.18 C-177.32 -2.95, -187 -7.08, -195.23 -10.59 M-167.64 1.18 C-178.61 -3.5, -189.58 -8.18, -195.23 -10.59" stroke="#1e1e1e" stroke-width="2" fill="none"></path></g></g><mask></mask><g transform="translate(62.5 10) rotate(0 433.15625 16.099999999999994)"><text x="0" y="0" font-family="Helvetica, Segoe UI Emoji" font-size="28px" fill="#1971c2" text-anchor="start" style="white-space: pre;" direction="ltr" dominant-baseline="text-before-edge">Overview of partitioning -- regions, im/mutable objects and behaviours</text></g><g transform="translate(72.76041603088379 116.29999999999998) rotate(0 94.75 25)"><text x="0" y="0" font-family="Virgil, Segoe UI Emoji" font-size="20px" fill="#1971c2" text-anchor="start" style="white-space: pre;" direction="ltr" dominant-baseline="text-before-edge">Immutable objects </text><text x="0" y="25" font-family="Virgil, Segoe UI Emoji" font-size="20px" fill="#1971c2" text-anchor="start" style="white-space: pre;" direction="ltr" dominant-baseline="text-before-edge">don't live in regions</text></g><g stroke-linecap="round"><g transform="translate(39.5 325.29999999999995) rotate(0 50.756841863119234 54.31684888657536)"><path d="M0 0 C6.58 11.75, 22.58 52.39, 39.5 70.5 C56.42 88.61, 91.18 102.28, 101.51 108.63" stroke="#e03131" stroke-width="1.5" fill="none" stroke-dasharray="8 9"></path></g><g transform="translate(39.5 325.29999999999995) rotate(0 50.756841863119234 54.31684888657536)"><path d="M71.76 104.82 C77.83 105.6, 83.9 106.38, 101.51 108.63" stroke="#e03131" stroke-width="1.5" fill="none"></path></g><g transform="translate(39.5 325.29999999999995) rotate(0 50.756841863119234 54.31684888657536)"><path d="M81.17 86.58 C85.32 91.08, 89.47 95.58, 101.51 108.63" stroke="#e03131" stroke-width="1.5" fill="none"></path></g></g><mask></mask><g transform="translate(450.5 334.79999999999995) rotate(0 8.208333015441895 16.799999999999997)"><text x="0" y="0" font-family="Cascadia, Segoe UI Emoji" font-size="28px" fill="#f08c00" text-anchor="start" style="white-space: pre;" direction="ltr" dominant-baseline="text-before-edge">1</text></g><g stroke-opacity="0.4" fill-opacity="0.4" stroke-linecap="round" transform="translate(450.5 362.6823529411764) rotate(0 72 77.64705882352942)"><path d="M12.26 64.98 C12.26 64.98, 12.26 64.98, 12.26 64.98 M12.26 64.98 C12.26 64.98, 12.26 64.98, 12.26 64.98 M5.43 78.93 C24.66 57.66, 45.42 33.38, 61.86 14.02 M5.43 78.93 C21.45 59.6, 38.21 40.95, 61.86 14.02 M7.14 83.06 C25.24 63.01, 38.46 46.15, 72.09 8.34 M7.14 83.06 C22.23 65.99, 37.76 48.31, 72.09 8.34 M8.85 87.19 C27.29 68.99, 42.12 47.35, 78.39 7.19 M8.85 87.19 C31.69 60.48, 55.02 33.13, 78.39 7.19 M11.87 89.82 C41.94 59.43, 67.17 25.08, 81.41 9.82 M11.87 89.82 C35.93 62.73, 59.44 36.82, 81.41 9.82 M14.23 93.2 C30.71 74.48, 46.01 55.86, 84.43 12.44 M14.23 93.2 C33.06 71.33, 52.27 49.27, 84.43 12.44 M17.25 95.82 C34.01 77.6, 47.46 62, 86.79 15.82 M17.25 95.82 C44.37 66.61, 69.78 36, 86.79 15.82 M19.61 99.2 C43.46 70.05, 71.09 39.32, 89.81 18.44 M19.61 99.2 C46.38 68, 73.26 37.4, 89.81 18.44 M22.63 101.82 C39.21 84.21, 52.63 65.91, 92.83 21.07 M22.63 101.82 C39.29 82.81, 54.56 64.34, 92.83 21.07 M25.65 104.45 C53.54 75.58, 78.04 43.48, 95.85 23.69 M25.65 104.45 C53.16 72.49, 79.64 42.59, 95.85 23.69 M28.01 107.83 C47.16 90.11, 61.22 67.91, 98.21 27.07 M28.01 107.83 C51.56 82.31, 72.92 56.58, 98.21 27.07 M31.03 110.45 C47.53 92.46, 63.51 75.89, 101.23 29.7 M31.03 110.45 C47.4 91.71, 64.33 73.64, 101.23 29.7 M34.05 113.07 C51.96 91.09, 70.87 72.08, 103.59 33.08 M34.05 113.07 C58.92 83.28, 85.22 55.31, 103.59 33.08 M36.41 116.45 C51.9 100.15, 63.68 82.09, 106.61 35.7 M36.41 116.45 C56.54 91.06, 78.77 68.28, 106.61 35.7 M39.43 119.08 C66.54 89.29, 92.98 60.66, 108.97 39.08 M39.43 119.08 C55.93 99.84, 71.2 81.11, 108.97 39.08 M41.79 122.46 C65.5 95.59, 86.55 69.62, 111.99 41.7 M41.79 122.46 C67.49 92.53, 94.71 62, 111.99 41.7 M44.81 125.08 C71.52 96.28, 96.76 66.12, 114.36 45.08 M44.81 125.08 C67.59 99.89, 90.09 73.83, 114.36 45.08 M47.83 127.71 C75.4 94.6, 101.57 65.62, 117.37 47.71 M47.83 127.71 C67.43 104.43, 88.94 79.58, 117.37 47.71 M50.19 131.08 C65 116.94, 75.56 98.3, 119.74 51.09 M50.19 131.08 C75 102.86, 97.7 75.37, 119.74 51.09 M53.21 133.71 C68.51 117.63, 82.38 101.17, 122.1 54.46 M53.21 133.71 C74.23 107.38, 98.35 82.1, 122.1 54.46 M56.23 136.33 C78.6 110.59, 98.31 85.99, 125.12 57.09 M56.23 136.33 C80.13 109.12, 104.3 81.62, 125.12 57.09 M58.59 139.71 C86.76 109.22, 112.27 76.27, 127.48 60.47 M58.59 139.71 C81.13 112.25, 106.2 85.84, 127.48 60.47 M61.61 142.34 C79.87 120.17, 99.47 101.1, 130.5 63.09 M61.61 142.34 C83.15 118.71, 103.08 94.03, 130.5 63.09 M63.98 145.71 C81.83 126.93, 98.76 107.82, 132.86 66.47 M63.98 145.71 C81.43 124.92, 100.43 103.23, 132.86 66.47 M67.65 147.58 C94.48 119.14, 118.8 87.47, 135.88 69.09 M67.65 147.58 C89.2 121.25, 111.1 97.53, 135.88 69.09 M71.33 149.45 C86.73 130.47, 100.54 116.41, 137.59 73.23 M71.33 149.45 C86.33 130.26, 101.21 113.01, 137.59 73.23 M74.35 152.08 C91.5 134.31, 107.01 113.73, 139.95 76.61 M74.35 152.08 C88.22 135.48, 104.83 118.36, 139.95 76.61" stroke="#a5d8ff" stroke-width="0.5" fill="none"></path><path d="M91.25 19.5 M91.25 19.5 C100.27 29.79, 110.06 39.67, 125.75 58.5 M125.75 58.5 C142.36 79.19, 145.73 77.81, 125.75 97.5 M125.75 97.5 C113.17 112.18, 102.83 125.54, 91.25 135.79 M91.25 135.79 C72.65 156.32, 71.29 157.04, 54.75 135.79 M54.75 135.79 C45.57 125.6, 37.11 115.33, 18.25 97.5 M18.25 97.5 C-0.79 76.75, -0.7 77.19, 18.25 58.5 M18.25 58.5 C29.48 47.82, 37.79 36.05, 54.75 19.5 M54.75 19.5 C73.92 -0.78, 71.5 -2, 91.25 19.5" stroke="#1971c2" stroke-width="1.5" fill="none" stroke-dasharray="8 9"></path></g><g stroke-linecap="round" transform="translate(502 342.29999999999995) rotate(0 23.5 23.5)"><path d="M10.08 1.01 L38.67 -0.01 L43.89 2.34 L44.08 3.63 L45.91 10.51 L46.75 37.43 L47.34 41.78 L40.83 44.17 L33.87 46.07 L7.87 48.34 L5.87 44.23 L2.21 40.66 L-1 35.5 L2.02 4.77 L5.98 2.7 L13.19 0.87" stroke="none" stroke-width="0" fill="#a5d8ff"></path><path d="M11.75 0 M11.75 0 C17.58 1.39, 21.28 -1.62, 35.25 0 M11.75 0 C20.67 -0.99, 29.52 -0.35, 35.25 0 M35.25 0 C44.75 1.04, 45.73 5.14, 47 11.75 M35.25 0 C41.21 1.24, 44.97 2.45, 47 11.75 M47 11.75 C48.18 17.87, 47.69 20.79, 47 35.25 M47 11.75 C46.89 20.06, 47.44 29.94, 47 35.25 M47 35.25 C47.26 44.59, 42.8 48.09, 35.25 47 M47 35.25 C47.57 44.92, 42.68 48.66, 35.25 47 M35.25 47 C29.57 48.07, 21.87 47.81, 11.75 47 M35.25 47 C26.04 46.69, 16.16 47.96, 11.75 47 M11.75 47 C3.92 48.44, 0.61 41.66, 0 35.25 M11.75 47 C6.14 46.79, 0.33 40.79, 0 35.25 M0 35.25 C1.69 24.28, -0.93 17.72, 0 11.75 M0 35.25 C-0.52 27.98, -0.35 21.26, 0 11.75 M0 11.75 C1.32 5.38, 5.81 0.45, 11.75 0 M0 11.75 C2.1 3.95, 4.56 1.84, 11.75 0" stroke="#1971c2" stroke-width="1" fill="none"></path></g><g stroke-linecap="round"><g transform="translate(510.03524463886924 298.11538433362324) rotate(0 5.793826381124518 21.59230783318838)"><path d="M0 0 C1.93 7.2, 9.66 35.99, 11.59 43.18 M0 0 C1.93 7.2, 9.66 35.99, 11.59 43.18" stroke="#1e1e1e" stroke-width="2" fill="none"></path></g><g transform="translate(510.03524463886924 298.11538433362324) rotate(0 5.793826381124518 21.59230783318838)"><path d="M-1.24 24.88 C3.1 31.07, 7.44 37.27, 11.59 43.18 M-1.24 24.88 C3.21 31.23, 7.66 37.57, 11.59 43.18" stroke="#1e1e1e" stroke-width="2" fill="none"></path></g><g transform="translate(510.03524463886924 298.11538433362324) rotate(0 5.793826381124518 21.59230783318838)"><path d="M13.53 20.91 C12.87 28.45, 12.21 35.99, 11.59 43.18 M13.53 20.91 C12.86 28.64, 12.18 36.36, 11.59 43.18" stroke="#1e1e1e" stroke-width="2" fill="none"></path></g></g><mask></mask><g transform="translate(488.7604160308838 416.29999999999995) rotate(0 34.13541793823242 25)"><text x="0" y="0" font-family="Virgil, Segoe UI Emoji" font-size="20px" fill="#1971c2" text-anchor="start" style="white-space: pre;" direction="ltr" dominant-baseline="text-before-edge">Nested</text><text x="0" y="25" font-family="Virgil, Segoe UI Emoji" font-size="20px" fill="#1971c2" text-anchor="start" style="white-space: pre;" direction="ltr" dominant-baseline="text-before-edge">region</text></g><g transform="translate(426.7604160308838 532.3) rotate(0 29.65625 12.5)"><text x="0" y="0" font-family="Virgil, Segoe UI Emoji" font-size="20px" fill="#1971c2" text-anchor="start" style="white-space: pre;" direction="ltr" dominant-baseline="text-before-edge">Region</text></g><g stroke-linecap="round"><g transform="translate(437.02703119520675 192.22641166979784) rotate(0 -8.027031195206519 16.573588330202142)"><path d="M0 0 C-2.68 5.52, -13.38 27.62, -16.05 33.15 M0 0 C-2.68 5.52, -13.38 27.62, -16.05 33.15" stroke="#1e1e1e" stroke-width="2" fill="none"></path></g><g transform="translate(437.02703119520675 192.22641166979784) rotate(0 -8.027031195206519 16.573588330202142)"><path d="M-14.18 14.83 C-14.74 20.3, -15.3 25.77, -16.05 33.15 M-14.18 14.83 C-14.65 19.47, -15.13 24.12, -16.05 33.15" stroke="#1e1e1e" stroke-width="2" fill="none"></path></g><g transform="translate(437.02703119520675 192.22641166979784) rotate(0 -8.027031195206519 16.573588330202142)"><path d="M-2.84 20.32 C-6.79 24.15, -10.74 27.98, -16.05 33.15 M-2.84 20.32 C-6.19 23.57, -9.54 26.82, -16.05 33.15" stroke="#1e1e1e" stroke-width="2" fill="none"></path></g></g><mask></mask><g transform="translate(526.2916669845581 295) rotate(0 8.208333015441895 16.799999999999997)"><text x="0" y="0" font-family="Cascadia, Segoe UI Emoji" font-size="28px" fill="#f08c00" text-anchor="start" style="white-space: pre;" direction="ltr" dominant-baseline="text-before-edge">2</text></g><g transform="translate(275.2916669845581 249.00000000000003) rotate(0 8.208333015441895 16.799999999999997)"><text x="0" y="0" font-family="Cascadia, Segoe UI Emoji" font-size="28px" fill="#f08c00" text-anchor="start" style="white-space: pre;" direction="ltr" dominant-baseline="text-before-edge">3</text></g><g transform="translate(596.7604160308838 330.29999999999995) rotate(0 68.29166412353516 12.5)"><text x="0" y="0" font-family="Virgil, Segoe UI Emoji" font-size="20px" fill="#1971c2" text-anchor="start" style="white-space: pre;" direction="ltr" dominant-baseline="text-before-edge">Private region</text></g><g stroke-linecap="round"><g transform="translate(590.7604160308838 346.29999999999995) rotate(0 -22 10.5)"><path d="M0 0 C-7.33 3.5, -36.67 17.5, -44 21 M0 0 C-7.33 3.5, -36.67 17.5, -44 21" stroke="#1971c2" stroke-width="1" fill="none"></path></g></g><mask></mask></svg>